<svg width="100%" height="100%" viewBox="0 0 347 114" fill="none" xmlns="http://www.w3.org/2000/svg" preserveAspectRatio="none"><g filter="url(#filter0_d_22_93)"><path d="M290.252 22.0029H56.645C37.5127 22.0029 22.0029 37.5127 22.0029 56.645C22.0029 75.7773 37.5127 91.2871 56.645 91.2871H290.252C309.384 91.2871 324.894 75.7773 324.894 56.645C324.894 37.5127 309.384 22.0029 290.252 22.0029Z" fill="white" data-color-group="0"/></g><path d="M65.6731 51.396L67.4227 58.1704L69.3962 51.396H71.8037L73.7772 58.1704L75.5268 51.396H78.3682L75.0229 62.1315H72.6575L70.572 54.9512L68.4724 62.1315H66.107L62.8037 51.396H65.6451H65.6731Z" fill="#111111" data-color-group="1"/><path d="M81.3357 51.396L83.0853 58.1704L85.0588 51.396H87.4663L89.4398 58.1704L91.1894 51.396H94.0307L90.6855 62.1315H88.3201L86.2346 54.9512L84.135 62.1315H81.7696L78.4663 51.396H81.3077H81.3357Z" fill="#111111" data-color-group="1"/><path d="M96.9838 51.396L98.7334 58.1704L100.707 51.396H103.114L105.088 58.1704L106.838 51.396H109.679L106.334 62.1315H103.968L101.883 54.9512L99.7832 62.1315H97.4177L94.1145 51.396H96.9559H96.9838Z" fill="#111111" data-color-group="1"/><path d="M110.183 60.7457C110.183 59.8639 110.883 59.1641 111.765 59.1641C112.646 59.1641 113.374 59.8359 113.374 60.7457C113.374 61.6555 112.66 62.3553 111.765 62.3553C110.869 62.3553 110.183 61.6275 110.183 60.7457Z" fill="#111111" data-color-group="1"/><path d="M248.541 62.9156C248.541 62.0338 249.241 61.334 250.123 61.334C251.005 61.334 251.733 62.0058 251.733 62.9156C251.733 63.8254 251.019 64.5253 250.123 64.5253C249.227 64.5253 248.541 63.7974 248.541 62.9156Z" fill="#111111" data-color-group="1"/><path d="M253.986 53.5658H256.603V54.7975C257.345 53.9017 258.465 53.3418 259.711 53.3418C262.09 53.3418 263.7 55.0214 263.7 57.4849V64.3013H261.082V57.9747C261.082 56.5611 260.228 55.6513 258.843 55.6513C257.457 55.6513 256.603 56.5611 256.603 57.9887V64.2873H253.986V53.5518V53.5658Z" fill="#111111" data-color-group="1"/><path d="M265.365 59.0107C265.365 55.6374 267.871 53.356 270.978 53.356C274.085 53.356 275.975 55.1755 275.975 58.4368C275.975 58.8847 275.975 59.2626 275.919 59.7105H268.053C268.277 61.4181 269.285 62.2719 270.782 62.2719C272.028 62.2719 272.924 61.74 273.162 60.6903H275.835C275.345 63.3497 273.428 64.5254 270.656 64.5254C267.395 64.5254 265.365 62.4399 265.365 59.0107ZM268.179 57.667H273.33C273.204 56.3653 272.35 55.5954 270.95 55.5954C269.551 55.5954 268.571 56.3513 268.179 57.667Z" fill="#111111" data-color-group="1"/><path d="M278.648 60.0462L278.676 55.7211H276.927V53.5796H278.69V51.1022L281.252 50.7803V53.5796H283.757V55.7211H281.252V60.1441C281.252 61.5018 281.742 62.0477 282.833 62.0477C283.127 62.0477 283.421 62.0197 283.757 61.9357V64.3432C283.407 64.4272 283.043 64.4412 282.707 64.4412C279.964 64.4412 278.648 62.9715 278.662 60.0602L278.648 60.0462Z" fill="#111111" data-color-group="1"/><path d="M130.24 67.2124H231.661" stroke="#111111" stroke-width="2.1975" stroke-miterlimit="10" stroke-linecap="round"/><defs><filter id="filter0_d_22_93" x="-4.00543e-05" y="-4.00543e-05" width="346.897" height="113.29" filterUnits="userSpaceOnUse" color-interpolation-filters="sRGB"><feFlood flood-opacity="0" result="BackgroundImageFix"/><feColorMatrix in="SourceAlpha" type="matrix" values="0 0 0 0 0 0 0 0 0 0 0 0 0 0 0 0 0 0 127 0" result="hardAlpha"/><feOffset/><feGaussianBlur stdDeviation="11.0015"/><feColorMatrix type="matrix" values="0 0 0 0 0 0 0 0 0 0 0 0 0 0 0 0 0 0 0.2 0"/><feBlend mode="normal" in2="BackgroundImageFix" result="effect1_dropShadow_22_93"/><feBlend mode="normal" in="SourceGraphic" in2="effect1_dropShadow_22_93" result="shape"/></filter></defs></svg>