<svg width="100%" height="100%" viewBox="0 0 347 114" fill="none" xmlns="http://www.w3.org/2000/svg" preserveAspectRatio="none"><g filter="url(#filter0_d_32_400)"><path d="M290.252 22.0029H56.645C37.5127 22.0029 22.0029 37.5127 22.0029 56.645C22.0029 75.7773 37.5127 91.2871 56.645 91.2871H290.252C309.384 91.2871 324.894 75.7773 324.894 56.645C324.894 37.5127 309.384 22.0029 290.252 22.0029Z" fill="white" data-color-group="0"/></g><path d="M69.5359 51.3962L71.2855 58.1707L73.259 51.3962H75.6664L77.64 58.1707L79.3896 51.3962H82.2309L78.8858 62.1318H76.5203L74.4348 54.9514L72.3353 62.1318H69.9698L66.6665 51.3962H69.5079H69.5359Z" fill="#111111" data-color-group="1"/><path d="M85.1984 51.3962L86.948 58.1707L88.9216 51.3962H91.329L93.3026 58.1707L95.0522 51.3962H97.8935L94.5484 62.1318H92.1829L90.0973 54.9514L87.9978 62.1318H85.6324L82.3291 51.3962H85.1705H85.1984Z" fill="#111111" data-color-group="1"/><path d="M100.861 51.3962L102.61 58.1707L104.584 51.3962H106.991L108.965 58.1707L110.714 51.3962H113.556L110.21 62.1318H107.845L105.759 54.9514L103.66 62.1318H101.294L97.9912 51.3962H100.833H100.861Z" fill="#111111" data-color-group="1"/><path d="M114.046 60.7462C114.046 59.8644 114.746 59.1646 115.628 59.1646C116.509 59.1646 117.237 59.8364 117.237 60.7462C117.237 61.656 116.523 62.3558 115.628 62.3558C114.732 62.3558 114.046 61.628 114.046 60.7462Z" fill="#111111" data-color-group="1"/><path d="M252.404 62.9154C252.404 62.0336 253.104 61.3337 253.986 61.3337C254.868 61.3337 255.596 62.0056 255.596 62.9154C255.596 63.8252 254.882 64.525 253.986 64.525C253.09 64.525 252.404 63.7972 252.404 62.9154Z" fill="#111111" data-color-group="1"/><path d="M257.415 59.0104C257.415 55.7492 259.697 53.3557 262.678 53.3557C265.492 53.3557 267.199 54.6294 267.689 57.2328H264.974C264.652 56.1411 263.98 55.6092 262.734 55.6092C261.167 55.6092 260.033 56.9249 260.033 58.9544C260.033 61.1519 261.083 62.2717 262.776 62.2717C264.036 62.2717 264.792 61.7118 265.086 60.648H267.759C267.143 63.2095 265.198 64.5252 262.51 64.5252C259.501 64.5252 257.401 62.3417 257.401 59.0104H257.415Z" fill="#111111" data-color-group="1"/><path d="M268.613 58.9404C268.613 55.7772 271.09 53.3557 274.198 53.3557C277.305 53.3557 279.782 55.7912 279.782 58.9404C279.782 62.0897 277.305 64.5252 274.198 64.5252C271.09 64.5252 268.613 62.1037 268.613 58.9404ZM277.137 58.9404C277.137 56.9809 275.891 55.6512 274.198 55.6512C272.504 55.6512 271.258 56.9809 271.258 58.9404C271.258 60.9 272.504 62.2297 274.198 62.2297C275.891 62.2297 277.137 60.9 277.137 58.9404Z" fill="#111111" data-color-group="1"/><path d="M134.103 67.2126H235.524" stroke="#111111" stroke-width="2.1975" stroke-miterlimit="10" stroke-linecap="round"/><defs><filter id="filter0_d_32_400" x="-4.00543e-05" y="-4.00543e-05" width="346.897" height="113.29" filterUnits="userSpaceOnUse" color-interpolation-filters="sRGB"><feFlood flood-opacity="0" result="BackgroundImageFix"/><feColorMatrix in="SourceAlpha" type="matrix" values="0 0 0 0 0 0 0 0 0 0 0 0 0 0 0 0 0 0 127 0" result="hardAlpha"/><feOffset/><feGaussianBlur stdDeviation="11.0015"/><feColorMatrix type="matrix" values="0 0 0 0 0 0 0 0 0 0 0 0 0 0 0 0 0 0 0.2 0"/><feBlend mode="normal" in2="BackgroundImageFix" result="effect1_dropShadow_32_400"/><feBlend mode="normal" in="SourceGraphic" in2="effect1_dropShadow_32_400" result="shape"/></filter></defs></svg>