<svg width="100%" height="100%" viewBox="0 0 347 114" fill="none" xmlns="http://www.w3.org/2000/svg" preserveAspectRatio="none"><g filter="url(#filter0_d_32_520)"><path d="M290.252 22.0029H56.645C37.5127 22.0029 22.0029 37.5127 22.0029 56.645C22.0029 75.7773 37.5127 91.2871 56.645 91.2871H290.252C309.384 91.2871 324.894 75.7773 324.894 56.645C324.894 37.5127 309.384 22.0029 290.252 22.0029Z" fill="white" data-color-group="0"/></g><path d="M65.1833 51.396L66.9329 58.1704L68.9064 51.396H71.3139L73.2875 58.1704L75.0371 51.396H77.8784L74.5331 62.1315H72.1677L70.0822 54.9512L67.9827 62.1315H65.6172L62.314 51.396H65.1553H65.1833Z" fill="#111111" data-color-group="1"/><path d="M80.8317 51.396L82.5813 58.1704L84.5549 51.396H86.9623L88.9359 58.1704L90.6855 51.396H93.5268L90.1816 62.1315H87.8162L85.7306 54.9512L83.6311 62.1315H81.2656L77.9624 51.396H80.8038H80.8317Z" fill="#111111" data-color-group="1"/><path d="M96.4943 51.396L98.2439 58.1704L100.217 51.396H102.625L104.598 58.1704L106.348 51.396H109.189L105.844 62.1315H103.479L101.393 54.9512L99.2937 62.1315H96.9282L93.625 51.396H96.4663H96.4943Z" fill="#111111" data-color-group="1"/><path d="M109.679 60.7459C109.679 59.8641 110.379 59.1643 111.261 59.1643C112.143 59.1643 112.87 59.8362 112.87 60.7459C112.87 61.6557 112.157 62.3556 111.261 62.3556C110.365 62.3556 109.679 61.6277 109.679 60.7459Z" fill="#111111" data-color-group="1"/><path d="M248.051 62.9154C248.051 62.0336 248.751 61.3337 249.633 61.3337C250.515 61.3337 251.243 62.0056 251.243 62.9154C251.243 63.8252 250.529 64.525 249.633 64.525C248.737 64.525 248.051 63.7972 248.051 62.9154Z" fill="#111111" data-color-group="1"/><path d="M253.062 59.0243C253.062 55.7631 255.343 53.3696 258.325 53.3696C261.138 53.3696 262.846 54.6433 263.336 57.2467H260.62C260.298 56.155 259.626 55.6231 258.381 55.6231C256.813 55.6231 255.679 56.9388 255.679 58.9683C255.679 61.1658 256.729 62.2856 258.423 62.2856C259.682 62.2856 260.438 61.7257 260.732 60.662H263.405C262.79 63.2234 260.844 64.5391 258.157 64.5391C255.147 64.5391 253.048 62.3556 253.048 59.0243H253.062Z" fill="#111111" data-color-group="1"/><path d="M264.259 58.9402C264.259 55.7769 266.737 53.3555 269.844 53.3555C272.951 53.3555 275.429 55.7909 275.429 58.9402C275.429 62.0895 272.951 64.5249 269.844 64.5249C266.737 64.5249 264.259 62.1035 264.259 58.9402ZM272.783 58.9402C272.783 56.9806 271.538 55.6509 269.844 55.6509C268.15 55.6509 266.905 56.9806 266.905 58.9402C266.905 60.8997 268.15 62.2294 269.844 62.2294C271.538 62.2294 272.783 60.8997 272.783 58.9402Z" fill="#111111" data-color-group="1"/><path d="M276.982 53.5794H279.502V54.8111C280.216 53.9293 281.279 53.3555 282.469 53.3555C283.869 53.3555 284.975 53.9713 285.632 55.0211C286.458 53.9573 287.648 53.3555 289.118 53.3555C291.399 53.3555 292.925 55.0351 292.925 57.4985V64.315H290.293V57.8764C290.293 56.5047 289.51 55.6649 288.278 55.6649C287.046 55.6649 286.276 56.5048 286.276 57.8904V64.315H283.645V57.8764C283.645 56.5047 282.861 55.6649 281.629 55.6649C280.398 55.6649 279.614 56.5187 279.614 57.9044V64.315H276.996V53.5794H276.982Z" fill="#111111" data-color-group="1"/><path d="M129.75 67.2263H231.171" stroke="#111111" stroke-width="2.1975" stroke-miterlimit="10" stroke-linecap="round"/><defs><filter id="filter0_d_32_520" x="-4.00543e-05" y="-4.00543e-05" width="346.897" height="113.29" filterUnits="userSpaceOnUse" color-interpolation-filters="sRGB"><feFlood flood-opacity="0" result="BackgroundImageFix"/><feColorMatrix in="SourceAlpha" type="matrix" values="0 0 0 0 0 0 0 0 0 0 0 0 0 0 0 0 0 0 127 0" result="hardAlpha"/><feOffset/><feGaussianBlur stdDeviation="11.0015"/><feColorMatrix type="matrix" values="0 0 0 0 0 0 0 0 0 0 0 0 0 0 0 0 0 0 0.2 0"/><feBlend mode="normal" in2="BackgroundImageFix" result="effect1_dropShadow_32_520"/><feBlend mode="normal" in="SourceGraphic" in2="effect1_dropShadow_32_520" result="shape"/></filter></defs></svg>