<svg width="100%" height="100%" viewBox="0 0 347 114" fill="none" xmlns="http://www.w3.org/2000/svg" preserveAspectRatio="none"><g filter="url(#filter0_d_22_79)"><path d="M290.252 22.0029H56.645C37.5127 22.0029 22.0029 37.5127 22.0029 56.645C22.0029 75.7773 37.5127 91.2871 56.645 91.2871H290.252C309.384 91.2871 324.894 75.7773 324.894 56.645C324.894 37.5127 309.384 22.0029 290.252 22.0029Z" fill="white" data-color-group="0"/></g><path d="M67.8571 51.3965L69.6067 58.1709L71.5803 51.3965H73.9877L75.9613 58.1709L77.7109 51.3965H80.5522L77.207 62.132H74.8415L72.756 54.9517L70.6565 62.132H68.291L64.9878 51.3965H67.8292H67.8571Z" fill="#111111" data-color-group="1"/><path d="M83.5197 51.3965L85.2693 58.1709L87.2429 51.3965H89.6503L91.6239 58.1709L93.3735 51.3965H96.2148L92.8696 62.132H90.5041L88.4186 54.9517L86.3191 62.132H83.9536L80.6504 51.3965H83.4917H83.5197Z" fill="#111111" data-color-group="1"/><path d="M99.1818 51.3965L100.931 58.1709L102.905 51.3965H105.312L107.286 58.1709L109.036 51.3965H111.877L108.532 62.132H106.166L104.081 54.9517L101.981 62.132H99.6157L96.3125 51.3965H99.1538H99.1818Z" fill="#111111" data-color-group="1"/><path d="M112.367 60.7462C112.367 59.8644 113.067 59.1646 113.949 59.1646C114.831 59.1646 115.558 59.8364 115.558 60.7462C115.558 61.656 114.845 62.3558 113.949 62.3558C113.053 62.3558 112.367 61.628 112.367 60.7462Z" fill="#111111" data-color-group="1"/><path d="M250.725 62.9156C250.725 62.0338 251.425 61.334 252.307 61.334C253.189 61.334 253.916 62.0058 253.916 62.9156C253.916 63.8254 253.203 64.5253 252.307 64.5253C251.411 64.5253 250.725 63.7974 250.725 62.9156Z" fill="#111111" data-color-group="1"/><path d="M256.114 49.1147H258.731V54.3635C259.627 53.6497 260.635 53.3558 261.685 53.3558C264.61 53.3558 266.835 55.4553 266.835 58.9405C266.835 62.4257 264.596 64.5252 261.685 64.5252C260.635 64.5252 259.627 64.2313 258.731 63.5175V64.3153H256.114V49.1288V49.1147ZM264.204 58.9405C264.204 56.883 263.028 55.6513 261.363 55.6513C259.697 55.6513 258.507 56.981 258.507 58.9405C258.507 60.9001 259.683 62.2298 261.363 62.2298C263.042 62.2298 264.204 60.998 264.204 58.9405Z" fill="#111111" data-color-group="1"/><path d="M268.403 50.3884C268.403 49.5766 269.075 48.9048 269.901 48.9048C270.727 48.9048 271.371 49.5766 271.371 50.3884C271.371 51.2003 270.699 51.8721 269.901 51.8721C269.103 51.8721 268.403 51.2003 268.403 50.3884ZM268.557 53.5657H271.175V64.3013H268.557V53.5657Z" fill="#111111" data-color-group="1"/><path d="M276.171 62.048H281.504V64.3015H272.686V62.5658L277.753 55.8194H272.938V53.5659H281.238V55.3015L276.171 62.048Z" fill="#111111" data-color-group="1"/><path d="M132.438 67.2124H233.859" stroke="black" stroke-width="2.1975" stroke-miterlimit="10" stroke-linecap="round"/><defs><filter id="filter0_d_22_79" x="-4.00543e-05" y="-4.00543e-05" width="346.897" height="113.29" filterUnits="userSpaceOnUse" color-interpolation-filters="sRGB"><feFlood flood-opacity="0" result="BackgroundImageFix"/><feColorMatrix in="SourceAlpha" type="matrix" values="0 0 0 0 0 0 0 0 0 0 0 0 0 0 0 0 0 0 127 0" result="hardAlpha"/><feOffset/><feGaussianBlur stdDeviation="11.0015"/><feColorMatrix type="matrix" values="0 0 0 0 0 0 0 0 0 0 0 0 0 0 0 0 0 0 0.2 0"/><feBlend mode="normal" in2="BackgroundImageFix" result="effect1_dropShadow_22_79"/><feBlend mode="normal" in="SourceGraphic" in2="effect1_dropShadow_22_79" result="shape"/></filter></defs></svg>