<svg width="100%" height="100%" viewBox="0 0 48 94" fill="none" xmlns="http://www.w3.org/2000/svg" preserveAspectRatio="none"><path d="M0.0210334 0.303117C1.71576 0.205178 3.43343 -0.139083 5.09303 0.0617509C7.46497 0.355717 9.89766 0.782005 12.1279 1.60353C26.1175 6.8037 37.1992 15.8691 43.2705 29.4054C49.4732 43.2049 48.3899 57.3221 39.8002 70.253C35.5019 76.7291 29.9931 82.106 23.5321 86.4856C22.3692 87.281 21.2192 88.0947 19.3193 89.428C22.3912 90.2621 24.7341 90.8944 27.0769 91.5267C27.0562 91.8536 27.0355 92.1805 27.0133 92.4975C26.351 92.7306 25.7015 93.1134 25.0301 93.1556C21.5152 93.391 17.9912 93.567 14.4626 93.7134C12.1992 93.7974 9.76472 93.8873 8.43084 91.6537C6.99898 89.2428 8.07223 86.8728 9.56722 84.944C11.6191 82.2924 13.9317 79.8235 16.2876 77.4389C16.779 76.9488 17.9748 77.1601 18.8378 77.048C18.9399 77.9125 19.4275 78.981 19.0888 79.6095C18.0439 81.5705 16.6904 83.3663 15.4228 85.2603C15.7177 85.3365 15.9199 85.4674 16.0226 85.4112C36.5812 74.3987 47.094 56.59 41.4165 34.4041C41.1396 33.3236 40.7425 32.2514 40.2458 31.2551C33.0938 16.8728 21.9304 7.14209 6.49143 2.51821C4.4443 1.9013 2.21515 1.87883 0.0637041 1.5713C0.0395989 1.15008 0.0139822 0.718988 -0.000240159 0.296262L0.0210334 0.303117Z" fill="black" data-color-group="0"/></svg>