<svg xmlns="http://www.w3.org/2000/svg" width="531" height="29" viewBox="0 0 531 29"><g fill="#111"><path d="M44.297 23.53c2.755 0 4.938-1.067 6.119-3.162l.178 2.908h1.752V14.07h-6.424v1.841h4.354v.229c0 2.704-1.815 5.42-5.814 5.42-4.33 0-6.348-2.818-6.348-7.3 0-4.582 2.438-7.235 6.373-7.235 3.161 0 5.002 1.37 5.51 3.999h2.273c-.61-3.77-3.263-5.954-7.795-5.954-5.294 0-8.659 3.681-8.659 9.267 0 5.802 3.238 9.191 8.48 9.191M55.024 23.276h2.057v-6.12c0-2.843 1.536-4.735 3.644-4.735.495 0 .863.076 1.231.203v-2.12a5 5 0 0 0-1.231-.14c-1.587 0-2.933 1.003-3.631 2.768V10.58h-2.07ZM69.053 23.53c3.11 0 5.32-1.397 5.98-4.406h-2.134c-.482 1.778-1.853 2.565-3.77 2.565-2.412 0-4-1.562-4.151-4.253h10.168c.039-.457.051-.876.051-1.333 0-3.707-2.374-5.777-5.84-5.777-3.757 0-6.525 2.793-6.525 6.729 0 3.948 2.412 6.474 6.22 6.474m.254-11.388c2.221 0 3.732 1.282 3.783 3.618h-8.01c.43-2.184 2.018-3.618 4.227-3.618M80.707 23.53c2.095 0 3.517-.737 4.583-2.4l.114 2.146h1.765v-7.859c0-3.174-1.955-5.09-5.015-5.09-2.666 0-4.532 1.396-5.027 3.77l1.98.025c.369-1.218 1.372-1.955 2.946-1.955 1.955 0 3.123 1.219 3.123 3.364v.915c-1.143-.407-2.349-.66-3.67-.66-3.198 0-5.077 1.56-5.065 3.986-.012 2.285 1.537 3.757 4.266 3.757m-2.158-3.873c-.013-1.27 1.066-2.183 3.047-2.183 1.307 0 2.361.216 3.554.723-.165 1.867-1.574 3.542-4.075 3.542-1.726 0-2.539-.837-2.526-2.082M94.723 23.479c.47 0 .977-.051 1.383-.178v-1.93a4.3 4.3 0 0 1-1.27.178c-1.37 0-2.081-.774-2.081-2.768v-6.398h3.3V10.58h-3.3v-3.3l-2.07.266v3.034h-2.107v1.803h2.095l-.013 6.398c0 3.174 1.384 4.698 4.063 4.698"/><path/><path d="M104.51 7.838c.712 0 1.308-.597 1.308-1.32s-.596-1.32-1.307-1.32c-.724 0-1.32.596-1.32 1.32 0 .723.596 1.32 1.32 1.32m-1.066 15.438h2.108V10.58h-2.108ZM119.91 23.276V5.324h-2.095v7.122c-1.028-1.421-2.488-2.12-4.214-2.12-3.428 0-5.942 2.514-5.942 6.615 0 4.075 2.514 6.588 5.929 6.588 1.726 0 3.2-.698 4.227-2.12v1.867Zm-6.106-1.6c-2.374 0-4-1.815-4-4.76 0-2.92 1.626-4.736 4.025-4.736 2.476 0 4.164 1.815 4.164 4.748s-1.688 4.748-4.19 4.748M128.175 23.53c3.11 0 5.32-1.397 5.98-4.406h-2.134c-.482 1.778-1.853 2.565-3.77 2.565-2.412 0-3.999-1.562-4.151-4.253h10.169c.038-.457.05-.876.05-1.333 0-3.707-2.374-5.777-5.84-5.777-3.757 0-6.525 2.793-6.525 6.729 0 3.948 2.412 6.474 6.22 6.474m.254-11.388c2.221 0 3.732 1.282 3.783 3.618h-8.01c.43-2.184 2.018-3.618 4.227-3.618M139.83 23.53c2.094 0 3.516-.737 4.582-2.4l.114 2.146h1.765v-7.859c0-3.174-1.955-5.09-5.015-5.09-2.666 0-4.532 1.396-5.027 3.77l1.98.025c.369-1.218 1.372-1.955 2.946-1.955 1.955 0 3.123 1.219 3.123 3.364v.915c-1.143-.407-2.349-.66-3.67-.66-3.198 0-5.077 1.56-5.065 3.986-.012 2.285 1.537 3.757 4.266 3.757m-2.16-3.873c-.012-1.27 1.067-2.183 3.048-2.183 1.307 0 2.361.216 3.554.723-.165 1.867-1.574 3.542-4.075 3.542-1.726 0-2.539-.837-2.526-2.082M152.715 23.53c3.034 0 4.76-1.6 4.76-3.695 0-4.76-7.16-3.034-7.16-6.119 0-.901.762-1.701 2.197-1.701 1.625 0 2.513.774 2.577 2.17h1.917c-.026-2.45-1.524-3.859-4.393-3.859-2.717 0-4.303 1.575-4.303 3.517 0 4.85 7.122 2.958 7.122 6.17 0 1.104-.889 1.853-2.666 1.84-1.955 0-2.844-.837-2.908-2.323h-1.942c.102 2.527 1.84 4 4.799 4"/><path/><path d="M176.519 23.276V5.324h-2.095v7.122c-1.028-1.421-2.488-2.12-4.215-2.12-3.428 0-5.941 2.514-5.941 6.615 0 4.075 2.513 6.588 5.928 6.588 1.727 0 3.2-.698 4.228-2.12v1.867Zm-6.107-1.6c-2.374 0-3.999-1.815-3.999-4.76 0-2.92 1.625-4.736 4.024-4.736 2.476 0 4.165 1.815 4.165 4.748s-1.689 4.748-4.19 4.748M184.783 23.53c3.11 0 5.32-1.397 5.98-4.406h-2.133c-.483 1.778-1.854 2.565-3.77 2.565-2.413 0-4-1.562-4.152-4.253h10.169c.038-.457.05-.876.05-1.333 0-3.707-2.373-5.777-5.84-5.777-3.757 0-6.524 2.793-6.524 6.729 0 3.948 2.412 6.474 6.22 6.474m.254-11.388c2.222 0 3.733 1.282 3.783 3.618h-8.01c.431-2.184 2.018-3.618 4.227-3.618M196.755 23.53c3.034 0 4.76-1.6 4.76-3.695 0-4.76-7.16-3.034-7.16-6.119 0-.901.762-1.701 2.197-1.701 1.625 0 2.513.774 2.577 2.17h1.917c-.025-2.45-1.524-3.859-4.393-3.859-2.716 0-4.303 1.575-4.303 3.517 0 4.85 7.122 2.958 7.122 6.17 0 1.104-.889 1.853-2.666 1.84-1.955 0-2.844-.837-2.908-2.323h-1.942c.102 2.527 1.84 4 4.799 4M208.828 23.53c3.11 0 5.32-1.397 5.98-4.406h-2.133c-.483 1.778-1.854 2.565-3.77 2.565-2.413 0-4-1.562-4.152-4.253h10.169c.038-.457.05-.876.05-1.333 0-3.707-2.373-5.777-5.84-5.777-3.757 0-6.525 2.793-6.525 6.729 0 3.948 2.413 6.474 6.221 6.474m.254-11.388c2.222 0 3.732 1.282 3.783 3.618h-8.01c.431-2.184 2.018-3.618 4.227-3.618M216.979 23.276h2.056v-6.12c0-2.843 1.536-4.735 3.644-4.735.495 0 .863.076 1.231.203v-2.12a5 5 0 0 0-1.231-.14c-1.587 0-2.933 1.003-3.631 2.768V10.58h-2.07ZM224.85 10.58l5.167 12.696h1.764l5.18-12.696h-2.247l-3.758 9.979-3.77-9.979ZM243.537 23.53c3.11 0 5.32-1.397 5.98-4.406h-2.133c-.483 1.778-1.854 2.565-3.77 2.565-2.413 0-4-1.562-4.152-4.253h10.169c.038-.457.05-.876.05-1.333 0-3.707-2.373-5.777-5.84-5.777-3.757 0-6.525 2.793-6.525 6.729 0 3.948 2.413 6.474 6.221 6.474m.254-11.388c2.222 0 3.732 1.282 3.783 3.618h-8.01c.431-2.184 2.018-3.618 4.227-3.618"/><path/><path d="M260.828 23.53c2.095 0 3.517-.737 4.583-2.4l.114 2.146h1.765v-7.859c0-3.174-1.955-5.09-5.015-5.09-2.666 0-4.532 1.396-5.027 3.77l1.98.025c.369-1.218 1.372-1.955 2.946-1.955 1.955 0 3.123 1.219 3.123 3.364v.915c-1.143-.407-2.349-.66-3.67-.66-3.198 0-5.077 1.56-5.065 3.986-.012 2.285 1.537 3.757 4.266 3.757m-2.158-3.873c-.013-1.27 1.066-2.183 3.047-2.183 1.307 0 2.361.216 3.554.723-.165 1.867-1.574 3.542-4.075 3.542-1.726 0-2.539-.837-2.526-2.082"/><path/></g><g fill="#111"><path d="M281.509 28.785c3.516 0 6.068-2.374 6.068-6.03V10.58h-3.098v.94c-1.066-.85-2.247-1.194-3.49-1.194-3.454 0-6.094 2.489-6.094 6.602s2.64 6.601 6.093 6.601c1.244 0 2.425-.342 3.491-1.193v.978c0 1.828-1.142 2.996-3.11 2.996-1.777 0-2.602-.762-2.83-2.095h-2.972c.28 2.755 2.362 4.57 5.942 4.57m-.127-7.972c-1.98 0-3.364-1.448-3.364-3.885 0-2.438 1.383-3.885 3.364-3.885s3.377 1.574 3.377 3.885-1.397 3.885-3.377 3.885M290.116 23.276h2.996v-5.358c0-2.628 1.384-4.57 3.504-4.57.66 0 1.041.114 1.333.228v-3.072c-.28-.089-.736-.178-1.409-.178-1.473 0-2.717.914-3.402 2.54V10.58h-3.022ZM305.338 23.53c3.275 0 5.548-1.397 6.119-4.533h-3.161c-.28 1.244-1.333 1.866-2.806 1.866-1.764 0-2.958-1.015-3.224-3.034h9.293c.05-.52.063-.965.063-1.498 0-3.86-2.298-6.005-5.903-6.005-3.67 0-6.627 2.704-6.627 6.69 0 4.05 2.387 6.513 6.246 6.513m.355-10.55c1.663 0 2.666.914 2.819 2.45h-6.094c.47-1.549 1.676-2.45 3.275-2.45M317.462 23.53c1.815 0 3.123-.597 4.24-1.943l.19 1.689h2.552V15.53c0-3.148-2.145-5.205-5.357-5.205-3.098 0-4.964 1.663-5.154 4.164l2.869.039c.216-.89.825-1.499 2.145-1.499 1.625 0 2.54 1.016 2.54 2.603v.482c-1.08-.317-2.21-.52-3.314-.52-3.276 0-5.053 1.536-5.04 4.024-.013 2.463 1.587 3.91 4.329 3.91m-1.27-4.063c-.012-.876.724-1.447 2.235-1.447 1.092 0 2.018.14 3.021.546-.228 1.295-1.6 2.374-3.377 2.374-1.295 0-1.891-.559-1.879-1.473M332.861 23.415c.394 0 .838-.012 1.244-.114v-2.844a5 5 0 0 1-1.091.127c-1.283 0-1.867-.647-1.867-2.247V13.12h2.958V10.58h-2.958v-3.3l-3.021.38-.013 2.92h-2.082v2.54h2.07l-.026 5.116c-.012 3.44 1.549 5.18 4.786 5.18"/><path/><path d="M354.228 23.276V5.324h-3.098v6.196c-1.067-.85-2.247-1.194-3.491-1.194-3.453 0-6.094 2.489-6.094 6.602s2.64 6.601 6.094 6.601c1.244 0 2.424-.342 3.49-1.193v.94Zm-6.196-2.463c-1.98 0-3.364-1.448-3.364-3.885 0-2.438 1.384-3.885 3.364-3.885s3.377 1.574 3.377 3.885-1.396 3.885-3.377 3.885M362.67 23.53c3.669 0 6.601-2.87 6.601-6.602s-2.932-6.602-6.601-6.602-6.602 2.87-6.602 6.602 2.933 6.601 6.602 6.601m0-2.717c-2.006 0-3.479-1.575-3.479-3.885s1.473-3.885 3.479-3.885 3.478 1.574 3.478 3.885-1.472 3.885-3.478 3.885M371.112 23.276h3.098v-7.58c0-1.637.927-2.64 2.387-2.64s2.386.99 2.386 2.615v7.605h3.11v-7.592c0-1.638.902-2.628 2.362-2.628s2.387.99 2.387 2.615v7.605h3.11v-8.062c0-2.92-1.803-4.9-4.507-4.9-1.752 0-3.148.71-4.126 1.967-.774-1.231-2.082-1.967-3.732-1.967-1.397 0-2.666.673-3.504 1.714V10.58h-2.97ZM396.186 23.53c1.815 0 3.123-.597 4.24-1.943l.19 1.689h2.552V15.53c0-3.148-2.146-5.205-5.357-5.205-3.098 0-4.964 1.663-5.155 4.164l2.87.039c.215-.89.825-1.499 2.145-1.499 1.625 0 2.539 1.016 2.539 2.603v.482c-1.08-.317-2.209-.52-3.314-.52-3.275 0-5.052 1.536-5.04 4.024-.012 2.463 1.587 3.91 4.33 3.91m-1.27-4.063c-.013-.876.724-1.447 2.234-1.447 1.092 0 2.019.14 3.022.546-.229 1.295-1.6 2.374-3.377 2.374-1.295 0-1.892-.559-1.879-1.473M407.281 8.574c.94 0 1.74-.787 1.74-1.752 0-.964-.8-1.751-1.74-1.751-.965 0-1.764.787-1.764 1.751 0 .965.8 1.752 1.764 1.752m-1.574 14.702h3.098V10.58h-3.098ZM411.344 23.276h3.097v-7.453c0-1.688 1.029-2.767 2.641-2.767 1.625 0 2.64 1.066 2.64 2.742v7.478h3.098v-8.062c0-2.92-1.891-4.9-4.71-4.9a4.76 4.76 0 0 0-3.669 1.726v-1.46h-3.097Z"/></g><g fill="#111"><path/><path d="M431.06 23.276h2.107v-7.414c0-2.222 1.473-3.67 3.453-3.67 1.93 0 3.098 1.207 3.098 3.365v7.719h2.107V15.2c0-2.97-1.79-4.875-4.672-4.875-1.663 0-3.097.787-3.986 2.082V10.58h-2.107ZM448.033 23.53c2.095 0 3.517-.737 4.583-2.4l.114 2.146h1.765v-7.859c0-3.174-1.955-5.09-5.015-5.09-2.666 0-4.532 1.396-5.027 3.77l1.98.025c.369-1.218 1.372-1.955 2.946-1.955 1.955 0 3.123 1.219 3.123 3.364v.915c-1.143-.407-2.349-.66-3.669-.66-3.2 0-5.078 1.56-5.065 3.986-.013 2.285 1.536 3.757 4.265 3.757m-2.158-3.873c-.013-1.27 1.066-2.183 3.047-2.183 1.307 0 2.361.216 3.555.723-.165 1.867-1.575 3.542-4.076 3.542-1.726 0-2.539-.837-2.526-2.082M457.098 23.276h2.107v-7.478c0-2.196 1.422-3.605 3.326-3.605 1.866 0 2.984 1.168 2.984 3.3v7.783h2.107v-7.478c0-2.209 1.41-3.605 3.326-3.605 1.854 0 2.984 1.168 2.984 3.3v7.783h2.107V15.2c0-2.97-1.752-4.875-4.57-4.875-1.892 0-3.403.889-4.355 2.412-.698-1.523-2.12-2.412-4.062-2.412-1.638 0-3.047.787-3.91 2.082V10.58h-2.044ZM484.202 23.53c3.11 0 5.32-1.397 5.98-4.406h-2.133c-.483 1.778-1.854 2.565-3.77 2.565-2.413 0-4-1.562-4.152-4.253h10.169c.038-.457.05-.876.05-1.333 0-3.707-2.373-5.777-5.84-5.777-3.757 0-6.525 2.793-6.525 6.729 0 3.948 2.413 6.474 6.221 6.474m.254-11.388c2.222 0 3.732 1.282 3.783 3.618h-8.01c.431-2.184 2.018-3.618 4.227-3.618M492.95 23.491c.76 0 1.383-.634 1.383-1.383 0-.775-.635-1.371-1.384-1.371-.762 0-1.37.609-1.37 1.37 0 .75.596 1.384 1.37 1.384"/></g></svg>