<svg width="100%" height="100%" viewBox="0 0 347 114" fill="none" xmlns="http://www.w3.org/2000/svg" preserveAspectRatio="none"><g filter="url(#filter0_d_22_36)"><path d="M290.252 22.0029H56.645C37.5127 22.0029 22.0029 37.5127 22.0029 56.645C22.0029 75.7773 37.5127 91.2871 56.645 91.2871H290.252C309.384 91.2871 324.894 75.7773 324.894 56.645C324.894 37.5127 309.384 22.0029 290.252 22.0029Z" fill="white" data-color-group="0"/></g><path d="M65.1827 51.396L66.9323 58.1704L68.9059 51.396H71.3133L73.2869 58.1704L75.0365 51.396H77.8779L74.5327 62.1315H72.1671L70.0816 54.9512L67.9821 62.1315H65.6167L62.3135 51.396H65.1547H65.1827Z" fill="#111111" data-color-group="1"/><path d="M80.845 51.396L82.5946 58.1704L84.568 51.396H86.9756L88.949 58.1704L90.6986 51.396H93.54L90.1948 62.1315H87.8294L85.7439 54.9512L83.6444 62.1315H81.2788L77.9756 51.396H80.817H80.845Z" fill="#111111" data-color-group="1"/><path d="M96.4933 51.396L98.2429 58.1704L100.216 51.396H102.624L104.597 58.1704L106.347 51.396H109.188L105.843 62.1315H103.478L101.392 54.9512L99.2926 62.1315H96.9272L93.624 51.396H96.4652H96.4933Z" fill="#111111" data-color-group="1"/><path d="M109.679 60.7459C109.679 59.8641 110.379 59.1643 111.26 59.1643C112.142 59.1643 112.87 59.8362 112.87 60.7459C112.87 61.6557 112.156 62.3556 111.26 62.3556C110.365 62.3556 109.679 61.6277 109.679 60.7459Z" fill="#111111" data-color-group="1"/><path d="M248.051 62.9154C248.051 62.0336 248.751 61.3337 249.632 61.3337C250.514 61.3337 251.242 62.0056 251.242 62.9154C251.242 63.8252 250.528 64.525 249.632 64.525C248.737 64.525 248.051 63.7972 248.051 62.9154Z" fill="#111111" data-color-group="1"/><path d="M257.835 57.1486L260.032 53.5654H263.167L259.542 58.8982L263.181 64.315H259.99L257.765 60.7318L255.539 64.315H252.404L256.043 58.9822L252.418 53.5654H255.609L257.807 57.1486H257.835Z" fill="#111111" data-color-group="1"/><path d="M263.993 65.113H266.513C266.695 66.2467 267.366 66.8765 268.794 66.8765C270.348 66.8765 271.257 65.8968 271.257 64.3571V63.0834C270.53 63.9512 269.396 64.5111 268.15 64.5111C265.729 64.5111 264.161 62.8315 264.161 60.382V53.5796H266.779V59.9061C266.779 61.3618 267.604 62.2296 269.018 62.2296C270.432 62.2296 271.257 61.3198 271.257 59.8921V53.5936H273.875V63.8952C273.875 66.9885 271.775 69.0041 268.906 69.0041C266.037 69.0041 264.245 67.4644 264.007 65.141L263.993 65.113Z" fill="#111111" data-color-group="1"/><path d="M278.858 62.0617H284.19V64.3151H275.373V62.5795L280.439 55.8331H275.624V53.5796H283.925V55.3152L278.858 62.0617Z" fill="#111111" data-color-group="1"/><path d="M129.75 67.2263H231.171" stroke="#111111" stroke-width="2.1975" stroke-miterlimit="10" stroke-linecap="round"/><defs><filter id="filter0_d_22_36" x="-4.00543e-05" y="-4.00543e-05" width="346.897" height="113.29" filterUnits="userSpaceOnUse" color-interpolation-filters="sRGB"><feFlood flood-opacity="0" result="BackgroundImageFix"/><feColorMatrix in="SourceAlpha" type="matrix" values="0 0 0 0 0 0 0 0 0 0 0 0 0 0 0 0 0 0 127 0" result="hardAlpha"/><feOffset/><feGaussianBlur stdDeviation="11.0015"/><feColorMatrix type="matrix" values="0 0 0 0 0 0 0 0 0 0 0 0 0 0 0 0 0 0 0.2 0"/><feBlend mode="normal" in2="BackgroundImageFix" result="effect1_dropShadow_22_36"/><feBlend mode="normal" in="SourceGraphic" in2="effect1_dropShadow_22_36" result="shape"/></filter></defs></svg>