<svg width="100%" height="100%" viewBox="0 0 347 114" fill="none" xmlns="http://www.w3.org/2000/svg" preserveAspectRatio="none"><g filter="url(#filter0_d_32_3)"><path d="M290.252 22.0029H56.645C37.5127 22.0029 22.0029 37.5127 22.0029 56.645C22.0029 75.7773 37.5127 91.2871 56.645 91.2871H290.252C309.384 91.2871 324.894 75.7773 324.894 56.645C324.894 37.5127 309.384 22.0029 290.252 22.0029Z" fill="white" data-color-group="0"/></g><path d="M67.8565 51.4102L69.6061 58.1846L71.5796 51.4102H73.9871L75.9606 58.1846L77.7102 51.4102H80.5516L77.2063 62.1457H74.8409L72.7554 54.9654L70.6558 62.1457H68.2904L64.9871 51.4102H67.8285H67.8565Z" fill="#111111" data-color-group="1"/><path d="M83.5191 51.4102L85.2687 58.1846L87.2422 51.4102H89.6497L91.6232 58.1846L93.3728 51.4102H96.2141L92.8689 62.1457H90.5035L88.4179 54.9654L86.3184 62.1457H83.953L80.6497 51.4102H83.491H83.5191Z" fill="#111111" data-color-group="1"/><path d="M99.1812 51.4102L100.931 58.1846L102.904 51.4102H105.312L107.285 58.1846L109.035 51.4102H111.876L108.531 62.1457H106.166L104.08 54.9654L101.981 62.1457H99.6151L96.3118 51.4102H99.1532H99.1812Z" fill="#111111" data-color-group="1"/><path d="M112.366 60.7462C112.366 59.8644 113.066 59.1646 113.948 59.1646C114.83 59.1646 115.557 59.8364 115.557 60.7462C115.557 61.656 114.844 62.3558 113.948 62.3558C113.052 62.3558 112.366 61.628 112.366 60.7462Z" fill="#111111" data-color-group="1"/><path d="M250.725 62.9293C250.725 62.0475 251.424 61.3477 252.306 61.3477C253.188 61.3477 253.916 62.0195 253.916 62.9293C253.916 63.8391 253.202 64.5389 252.306 64.5389C251.41 64.5389 250.725 63.8111 250.725 62.9293Z" fill="#111111" data-color-group="1"/><path d="M256.071 60.3821V53.5796H258.689V59.9062C258.689 61.3198 259.543 62.2296 260.928 62.2296C262.314 62.2296 263.168 61.3198 263.168 59.8922V53.5936H265.785V64.3292H263.168V63.0974C262.426 63.9932 261.306 64.5531 260.06 64.5531C257.681 64.5531 256.071 62.8595 256.071 60.3821Z" fill="#111111" data-color-group="1"/><path d="M273.833 57.8766L278.172 64.3291H275.079L272.07 59.5422L270.544 61.1378V64.3291H267.927V49.1426H270.544V57.9886L274.589 53.5795H277.99L273.819 57.8766H273.833Z" fill="#111111" data-color-group="1"/><path d="M132.438 67.2266H233.859" stroke="black" stroke-width="2.1975" stroke-miterlimit="10" stroke-linecap="round"/><defs><filter id="filter0_d_32_3" x="-4.00543e-05" y="-4.00543e-05" width="346.897" height="113.29" filterUnits="userSpaceOnUse" color-interpolation-filters="sRGB"><feFlood flood-opacity="0" result="BackgroundImageFix"/><feColorMatrix in="SourceAlpha" type="matrix" values="0 0 0 0 0 0 0 0 0 0 0 0 0 0 0 0 0 0 127 0" result="hardAlpha"/><feOffset/><feGaussianBlur stdDeviation="11.0015"/><feColorMatrix type="matrix" values="0 0 0 0 0 0 0 0 0 0 0 0 0 0 0 0 0 0 0.2 0"/><feBlend mode="normal" in2="BackgroundImageFix" result="effect1_dropShadow_32_3"/><feBlend mode="normal" in="SourceGraphic" in2="effect1_dropShadow_32_3" result="shape"/></filter></defs></svg>