<svg width="100%" height="100%" viewBox="0 0 347 114" fill="none" xmlns="http://www.w3.org/2000/svg" preserveAspectRatio="none"><g filter="url(#filter0_d_40_26)"><path d="M290.252 22.0029H56.645C37.5127 22.0029 22.0029 37.5127 22.0029 56.645C22.0029 75.7773 37.5127 91.2871 56.645 91.2871H290.252C309.384 91.2871 324.894 75.7773 324.894 56.645C324.894 37.5127 309.384 22.0029 290.252 22.0029Z" fill="white" data-color-group="0"/></g><path d="M67.8565 51.4102L69.6061 58.1846L71.5796 51.4102H73.9871L75.9606 58.1846L77.7102 51.4102H80.5516L77.2063 62.1457H74.8409L72.7554 54.9654L70.6558 62.1457H68.2904L64.9871 51.4102H67.8285H67.8565Z" fill="#111111" data-color-group="1"/><path d="M83.5191 51.4102L85.2687 58.1846L87.2422 51.4102H89.6497L91.6232 58.1846L93.3728 51.4102H96.2141L92.8689 62.1457H90.5035L88.4179 54.9654L86.3184 62.1457H83.953L80.6497 51.4102H83.491H83.5191Z" fill="#111111" data-color-group="1"/><path d="M99.1812 51.4102L100.931 58.1846L102.904 51.4102H105.312L107.285 58.1846L109.035 51.4102H111.876L108.531 62.1457H106.166L104.08 54.9654L101.981 62.1457H99.6151L96.3118 51.4102H99.1532H99.1812Z" fill="#111111" data-color-group="1"/><path d="M112.366 60.7462C112.366 59.8644 113.066 59.1646 113.948 59.1646C114.83 59.1646 115.557 59.8364 115.557 60.7462C115.557 61.656 114.844 62.3558 113.948 62.3558C113.052 62.3558 112.366 61.628 112.366 60.7462Z" fill="#111111" data-color-group="1"/><path d="M132.438 67.2266H233.859" stroke="black" stroke-width="2.1975" stroke-miterlimit="10" stroke-linecap="round"/><path d="M261.82 54.7959H264.731L267.331 62.1543L269.941 54.7959H272.734L268.352 65.5381H266.192L261.82 54.7959Z" fill="black" data-color-group="2"/><path d="M260.295 65.6562C257.556 65.6562 256.234 64.1846 256.245 61.2734L256.267 56.9443H254.516V54.7959H256.277L256.288 52.3252L258.845 52.0029V54.7959H261.348V56.9443H258.845V61.3594C258.845 62.7129 259.339 63.2607 260.424 63.2607C260.725 63.2607 261.004 63.2285 261.348 63.1533V65.5596C261.004 65.6455 260.628 65.6562 260.295 65.6562Z" fill="black" data-color-group="2"/><path d="M252.582 65.7529C251.68 65.7529 251.003 65.0225 251.003 64.1416C251.003 63.2607 251.701 62.5625 252.582 62.5625C253.463 62.5625 254.193 63.2393 254.193 64.1416C254.193 65.0225 253.484 65.7529 252.582 65.7529Z" fill="black" data-color-group="2"/><defs><filter id="filter0_d_40_26" x="-4.00543e-05" y="-4.00543e-05" width="346.897" height="113.29" filterUnits="userSpaceOnUse" color-interpolation-filters="sRGB"><feFlood flood-opacity="0" result="BackgroundImageFix"/><feColorMatrix in="SourceAlpha" type="matrix" values="0 0 0 0 0 0 0 0 0 0 0 0 0 0 0 0 0 0 127 0" result="hardAlpha"/><feOffset/><feGaussianBlur stdDeviation="11.0015"/><feColorMatrix type="matrix" values="0 0 0 0 0 0 0 0 0 0 0 0 0 0 0 0 0 0 0.2 0"/><feBlend mode="normal" in2="BackgroundImageFix" result="effect1_dropShadow_40_26"/><feBlend mode="normal" in="SourceGraphic" in2="effect1_dropShadow_40_26" result="shape"/></filter></defs></svg>