<svg xmlns="http://www.w3.org/2000/svg" width="143" height="23" viewBox="0 0 143 23"><g fill="#111"><path d="M16.057 23.619c2.886 0 4.98-1.948 4.98-4.948V8.68h-2.542v.771c-.875-.698-1.844-.98-2.865-.98-2.833 0-5 2.043-5 5.418s2.167 5.416 5 5.416c1.021 0 1.99-.281 2.865-.979v.802c0 1.5-.938 2.458-2.552 2.458-1.459 0-2.136-.625-2.323-1.718h-2.438c.23 2.26 1.938 3.75 4.875 3.75m-.104-6.542c-1.625 0-2.76-1.187-2.76-3.187s1.135-3.188 2.76-3.188 2.771 1.292 2.771 3.188c0 1.895-1.146 3.187-2.77 3.187M23.12 19.098h2.458v-4.396c0-2.156 1.136-3.75 2.875-3.75.542 0 .854.094 1.094.188V8.619c-.23-.073-.604-.146-1.156-.146-1.209 0-2.23.75-2.792 2.083V8.681h-2.48ZM35.61 19.306c2.687 0 4.552-1.146 5.02-3.719h-2.593c-.23 1.021-1.094 1.532-2.303 1.532-1.447 0-2.427-.834-2.645-2.49h7.625a12 12 0 0 0 .052-1.229c0-3.167-1.886-4.927-4.844-4.927-3.01 0-5.438 2.219-5.438 5.49 0 3.322 1.959 5.343 5.125 5.343m.291-8.656c1.365 0 2.188.75 2.313 2.01h-5c.385-1.27 1.375-2.01 2.687-2.01M45.557 19.306c1.49 0 2.563-.49 3.48-1.594l.156 1.386h2.093v-6.354c0-2.584-1.76-4.271-4.395-4.271-2.542 0-4.073 1.364-4.23 3.417l2.355.03c.177-.728.677-1.228 1.76-1.228 1.333 0 2.083.833 2.083 2.135v.396c-.885-.26-1.812-.427-2.718-.427-2.688 0-4.146 1.26-4.136 3.302-.01 2.02 1.302 3.208 3.552 3.208m-1.041-3.333c-.01-.719.593-1.188 1.833-1.188.896 0 1.656.115 2.48.448-.188 1.063-1.313 1.948-2.772 1.948-1.062 0-1.552-.458-1.541-1.208M58.193 19.212c.323 0 .687-.01 1.02-.093v-2.334a4 4 0 0 1-.895.105c-1.052 0-1.532-.532-1.532-1.844v-4.281h2.428V8.68h-2.428V5.973l-2.479.312-.01 2.396h-1.708v2.084h1.697l-.02 4.197c-.01 2.823 1.27 4.25 3.927 4.25"/><path/><path d="M75.724 19.098V4.368h-2.542v5.084c-.875-.698-1.843-.98-2.864-.98-2.834 0-5 2.043-5 5.418s2.166 5.416 5 5.416c1.02 0 1.99-.281 2.864-.979v.77Zm-5.083-2.02c-1.625 0-2.76-1.188-2.76-3.188s1.135-3.188 2.76-3.188 2.77 1.292 2.77 3.188c0 1.895-1.145 3.187-2.77 3.187M82.651 19.306c3.01 0 5.417-2.354 5.417-5.416S85.66 8.473 82.65 8.473s-5.417 2.354-5.417 5.417 2.407 5.416 5.417 5.416m0-2.229c-1.646 0-2.854-1.292-2.854-3.187 0-1.896 1.208-3.188 2.854-3.188s2.854 1.292 2.854 3.188c0 1.895-1.208 3.187-2.854 3.187M89.578 19.098h2.542v-6.219c0-1.344.76-2.167 1.958-2.167s1.958.813 1.958 2.146v6.24h2.552v-6.23c0-1.343.74-2.156 1.938-2.156s1.958.813 1.958 2.146v6.24h2.552v-6.615c0-2.396-1.479-4.02-3.698-4.02-1.437 0-2.583.583-3.385 1.614-.635-1.01-1.708-1.615-3.062-1.615-1.146 0-2.188.553-2.875 1.407V8.68h-2.438ZM110.151 19.306c1.49 0 2.562-.49 3.48-1.594l.155 1.386h2.094v-6.354c0-2.584-1.76-4.271-4.396-4.271-2.541 0-4.073 1.364-4.229 3.417l2.354.03c.177-.728.677-1.228 1.76-1.228 1.334 0 2.084.833 2.084 2.135v.396c-.885-.26-1.812-.427-2.719-.427-2.687 0-4.146 1.26-4.135 3.302-.01 2.02 1.302 3.208 3.552 3.208m-1.042-3.333c-.01-.719.594-1.188 1.834-1.188.895 0 1.656.115 2.479.448-.188 1.063-1.313 1.948-2.771 1.948-1.063 0-1.552-.458-1.542-1.208M119.255 7.035c.771 0 1.427-.645 1.427-1.437s-.656-1.438-1.427-1.438a1.45 1.45 0 0 0-1.448 1.438 1.45 1.45 0 0 0 1.448 1.437m-1.292 12.063h2.542V8.68h-2.542ZM122.588 19.098h2.542v-6.115c0-1.385.844-2.27 2.167-2.27 1.333 0 2.166.874 2.166 2.25v6.135h2.542v-6.615c0-2.396-1.552-4.02-3.864-4.02a3.91 3.91 0 0 0-3.01 1.416V8.681h-2.543Z"/></g></svg>