<svg width="100%" height="100%" viewBox="0 0 491 152" fill="none" xmlns="http://www.w3.org/2000/svg" preserveAspectRatio="none"><g filter="url(#filter0_d_22_336)"><path d="M414.448 30H75.7275C50.4729 30 30 50.4729 30 75.7276C30 100.982 50.4729 121.455 75.7275 121.455H414.448C439.703 121.455 460.176 100.982 460.176 75.7276C460.176 50.4729 439.703 30 414.448 30Z" fill="#111111" data-color-group="0"/></g><path d="M80.4062 70.2202H84.1638L86.4751 79.1676L89.0842 70.2202H92.2604L94.8695 79.1676L97.1808 70.2202H100.938L96.5143 84.3999H93.3948L90.6439 74.9279L87.8789 84.3999H84.7594L80.4062 70.2202ZM101.08 70.2202H104.838L107.149 79.1676L109.758 70.2202H112.934L115.543 79.1676L117.855 70.2202H121.612L117.188 84.3999H114.069L111.318 74.9279L108.553 84.3999H105.433L101.08 70.2202ZM121.754 70.2202H125.512L127.823 79.1676L130.432 70.2202H133.608L136.217 79.1676L138.529 70.2202H142.286L137.862 84.3999H134.743L131.992 74.9279L129.227 84.3999H126.107L121.754 70.2202ZM145.009 84.6835C143.818 84.6835 142.924 83.7193 142.924 82.5565C142.924 81.3938 143.846 80.4721 145.009 80.4721C146.172 80.4721 147.136 81.3654 147.136 82.5565C147.136 83.7193 146.2 84.6835 145.009 84.6835ZM156.14 90.5539C152.453 90.5539 150.326 88.668 149.958 85.7044H152.808C153.077 87.2926 154.055 88.1575 156.055 88.1575C158.324 88.1575 159.6 86.8246 159.6 84.3715V82.5707C158.621 83.8469 157.09 84.641 155.346 84.641C152.127 84.641 150.114 82.4573 150.114 79.196V70.2202H153.077V78.6713C153.077 80.8124 154.254 82.0461 156.253 82.0461C158.239 82.0461 159.6 80.6565 159.6 78.5012V70.2202H162.563V83.8611C162.563 88.0299 159.968 90.5539 156.14 90.5539ZM172.021 84.6835C167.923 84.6835 164.676 81.4647 164.676 77.3101C164.676 73.1412 167.923 69.9366 172.021 69.9366C176.105 69.9366 179.352 73.1554 179.352 77.3101C179.352 81.4789 176.105 84.6835 172.021 84.6835ZM172.021 82.0744C174.488 82.0744 176.346 80.1035 176.346 77.3101C176.346 74.5167 174.488 72.5457 172.021 72.5457C169.54 72.5457 167.682 74.5167 167.682 77.3101C167.682 80.1035 169.54 82.0744 172.021 82.0744ZM186.626 84.6977C183.45 84.6977 181.394 82.4998 181.394 79.2101V70.2202H184.357V78.6855C184.357 80.7983 185.563 82.0744 187.534 82.0744C189.519 82.0744 190.88 80.6706 190.88 78.5295V70.2202H193.844V84.3999H190.88V82.5849C189.902 83.8894 188.37 84.6977 186.626 84.6977ZM196.821 84.3999V70.2202H199.714V72.9002C200.494 71.0143 201.926 69.9508 203.628 69.9508C204.308 69.9508 204.79 70.0359 205.117 70.1351V73.0845C204.748 72.9569 204.323 72.8576 203.67 72.8576C201.316 72.8576 199.7 74.9846 199.7 78.0332V84.3999H196.821ZM207.215 75.0555H215.298V77.3242H207.215V75.0555ZM225.464 90.5539C221.65 90.5539 219.396 88.6822 218.956 85.6335H221.806C222.146 87.2784 223.224 88.1575 225.337 88.1575C227.832 88.1575 229.236 86.7396 229.236 84.1588V82.8685C228.073 84.1163 226.599 84.6835 224.968 84.6835C221.125 84.6835 218.247 81.8901 218.247 77.3101C218.247 72.73 221.125 69.9366 224.982 69.9366C226.613 69.9366 228.073 70.5038 229.236 71.7516V70.2202H232.2V83.6342C232.2 87.9448 229.449 90.5539 225.464 90.5539ZM225.323 82.0744C227.79 82.0744 229.491 80.2027 229.491 77.3101C229.491 74.4174 227.79 72.5457 225.323 72.5457C222.912 72.5457 221.239 74.3465 221.239 77.3101C221.239 80.2736 222.912 82.0744 225.323 82.0744ZM235.163 84.3999V70.2202H238.056V72.9002C238.836 71.0143 240.268 69.9508 241.97 69.9508C242.65 69.9508 243.132 70.0359 243.458 70.1351V73.0845C243.09 72.9569 242.664 72.8576 242.012 72.8576C239.658 72.8576 238.042 74.9846 238.042 78.0332V84.3999H235.163ZM251.555 84.6835C247.273 84.6835 244.579 81.9043 244.579 77.4235C244.579 72.9994 247.797 69.9366 251.938 69.9366C255.894 69.9366 258.503 72.2904 258.503 76.5302C258.503 77.0832 258.489 77.5653 258.432 78.1183H247.613C247.868 80.7132 249.386 82.117 251.683 82.117C253.54 82.117 254.887 81.3371 255.298 79.6781H258.319C257.624 83.1237 255.128 84.6835 251.555 84.6835ZM251.895 72.489C249.811 72.489 248.265 73.751 247.755 75.7928H255.54C255.398 73.6801 254.036 72.489 251.895 72.489ZM264.856 84.6835C261.807 84.6835 260.049 83.0528 260.063 80.3871C260.049 77.6504 262.091 75.9204 265.706 75.9204C267.039 75.9204 268.344 76.1615 269.577 76.5585V75.807C269.577 73.7651 268.429 72.5173 266.458 72.5173C264.856 72.5173 263.976 73.2688 263.65 74.4316L260.899 74.389C261.268 71.6524 263.338 69.9366 266.586 69.9366C270.102 69.9366 272.399 72.1628 272.399 75.6936V84.3999H269.946L269.776 82.2729C268.542 83.9462 267.025 84.6835 264.856 84.6835ZM262.998 80.2453C262.984 81.4222 263.764 82.1879 265.423 82.1879C267.777 82.1879 269.336 80.6848 269.549 78.9549C268.33 78.4586 267.238 78.2601 265.905 78.2601C263.976 78.2601 262.984 79.0683 262.998 80.2453ZM281.389 84.5842C278.057 84.5842 276.398 82.7551 276.412 79.04L276.44 72.6875H274.115V70.2202H276.44L276.455 66.9022L279.347 66.5335V70.2202H282.821V72.6875H279.347V79.1109C279.347 81.0819 280.07 81.8759 281.545 81.8759C281.985 81.8759 282.382 81.8192 282.85 81.7058V84.4283C282.396 84.5559 281.871 84.5842 281.389 84.5842ZM285.402 75.0555H293.484V77.3242H285.402V75.0555ZM298.603 67.6112C297.639 67.6112 296.845 66.8313 296.845 65.867C296.845 64.917 297.639 64.1371 298.603 64.1371C299.539 64.1371 300.333 64.917 300.333 65.867C300.333 66.8313 299.539 67.6112 298.603 67.6112ZM297.1 84.3999V70.2202H300.064V84.3999H297.1ZM316.314 84.3999H313.35V82.8685C312.187 84.1163 310.713 84.6835 309.082 84.6835C305.239 84.6835 302.361 81.8901 302.361 77.3101C302.361 72.73 305.239 69.9366 309.096 69.9366C310.727 69.9366 312.187 70.5038 313.35 71.7516V64.3498H316.314V84.3999ZM309.437 82.0744C311.904 82.0744 313.605 80.2027 313.605 77.3101C313.605 74.4174 311.904 72.5457 309.437 72.5457C307.026 72.5457 305.353 74.3465 305.353 77.3101C305.353 80.2736 307.026 82.0744 309.437 82.0744ZM325.545 84.6835C321.262 84.6835 318.568 81.9043 318.568 77.4235C318.568 72.9994 321.787 69.9366 325.928 69.9366C329.884 69.9366 332.493 72.2904 332.493 76.5302C332.493 77.0832 332.479 77.5653 332.422 78.1183H321.603C321.858 80.7132 323.375 82.117 325.672 82.117C327.53 82.117 328.877 81.3371 329.288 79.6781H332.308C331.614 83.1237 329.118 84.6835 325.545 84.6835ZM325.885 72.489C323.801 72.489 322.255 73.751 321.744 75.7928H329.529C329.387 73.6801 328.026 72.489 325.885 72.489ZM338.845 84.6835C335.797 84.6835 334.038 83.0528 334.052 80.3871C334.038 77.6504 336.08 75.9204 339.696 75.9204C341.029 75.9204 342.333 76.1615 343.567 76.5585V75.807C343.567 73.7651 342.419 72.5173 340.448 72.5173C338.845 72.5173 337.966 73.2688 337.64 74.4316L334.889 74.389C335.258 71.6524 337.328 69.9366 340.575 69.9366C344.092 69.9366 346.389 72.1628 346.389 75.6936V84.3999H343.936L343.766 82.2729C342.532 83.9462 341.015 84.6835 338.845 84.6835ZM336.988 80.2453C336.974 81.4222 337.753 82.1879 339.412 82.1879C341.766 82.1879 343.326 80.6848 343.539 78.9549C342.319 78.4586 341.227 78.2601 339.895 78.2601C337.966 78.2601 336.974 79.0683 336.988 80.2453ZM351.437 84.6835C350.246 84.6835 349.352 83.7193 349.352 82.5565C349.352 81.3938 350.274 80.4721 351.437 80.4721C352.6 80.4721 353.564 81.3654 353.564 82.5565C353.564 83.7193 352.628 84.6835 351.437 84.6835ZM362.738 84.6835C358.768 84.6835 355.988 81.805 355.988 77.4093C355.988 73.0987 358.995 69.9366 362.936 69.9366C366.652 69.9366 368.906 71.624 369.558 75.0555H365.971C365.546 73.6092 364.666 72.9144 363.007 72.9144C360.937 72.9144 359.448 74.6443 359.448 77.3242C359.448 80.2169 360.838 81.7058 363.078 81.7058C364.737 81.7058 365.744 80.9684 366.127 79.5646H369.658C368.849 82.9394 366.269 84.6835 362.738 84.6835ZM378.151 84.6835C374.053 84.6835 370.778 81.4789 370.778 77.3101C370.778 73.1412 374.053 69.9366 378.151 69.9366C382.249 69.9366 385.525 73.1412 385.525 77.3101C385.525 81.4789 382.249 84.6835 378.151 84.6835ZM378.151 81.649C380.392 81.649 382.037 79.8908 382.037 77.3101C382.037 74.7294 380.392 72.9711 378.151 72.9711C375.911 72.9711 374.266 74.7294 374.266 77.3101C374.266 79.8908 375.911 81.649 378.151 81.649ZM387.581 84.3999V70.2202H390.899V71.8367C391.835 70.674 393.253 69.9224 394.812 69.9224C396.656 69.9224 398.116 70.7449 398.981 72.1203C400.073 70.7165 401.633 69.9224 403.59 69.9224C406.61 69.9224 408.623 72.1345 408.623 75.3958V84.3999H405.149V75.9063C405.149 74.0913 404.114 72.9853 402.484 72.9853C400.853 72.9853 399.846 74.0913 399.846 75.9204V84.3999H396.372V75.9063C396.372 74.0913 395.337 72.9853 393.706 72.9853C392.076 72.9853 391.041 74.1054 391.041 75.9346V84.3999H387.581Z" fill="white" data-color-group="1"/><defs><filter id="filter0_d_22_336" x="0" y="0" width="490.176" height="151.455" filterUnits="userSpaceOnUse" color-interpolation-filters="sRGB"><feFlood flood-opacity="0" result="BackgroundImageFix"/><feColorMatrix in="SourceAlpha" type="matrix" values="0 0 0 0 0 0 0 0 0 0 0 0 0 0 0 0 0 0 127 0" result="hardAlpha"/><feOffset/><feGaussianBlur stdDeviation="15"/><feComposite in2="hardAlpha" operator="out"/><feColorMatrix type="matrix" values="0 0 0 0 0 0 0 0 0 0 0 0 0 0 0 0 0 0 0.25 0"/><feBlend mode="normal" in2="BackgroundImageFix" result="effect1_dropShadow_22_336"/><feBlend mode="normal" in="SourceGraphic" in2="effect1_dropShadow_22_336" result="shape"/></filter></defs></svg>