<svg width="100%" height="100%" viewBox="0 0 366 115" fill="none" xmlns="http://www.w3.org/2000/svg" preserveAspectRatio="none"><g filter="url(#filter0_d_22_307)"><path d="M308.489 22.6189H57.2607C38.1284 22.6189 22.6187 38.1287 22.6187 57.261C22.6187 76.3933 38.1284 91.9031 57.2607 91.9031H308.489C327.622 91.9031 343.131 76.3933 343.131 57.261C343.131 38.1287 327.622 22.6189 308.489 22.6189Z" fill="white" data-color-group="0"/></g><path d="M66.3172 52.0261L68.0668 58.8006L70.0402 52.0261H72.4478L74.4212 58.8006L76.1708 52.0261H79.0122L75.6669 62.7617H73.3016L71.216 55.5813L69.1165 62.7617H66.751L63.4478 52.0261H66.2891H66.3172Z" fill="#111111" data-color-group="1"/><path d="M81.9798 52.0261L83.7294 58.8006L85.703 52.0261H88.1104L90.084 58.8006L91.8336 52.0261H94.675L91.3297 62.7617H88.9642L86.8786 55.5813L84.7791 62.7617H82.4137L79.1104 52.0261H81.9517H81.9798Z" fill="#111111" data-color-group="1"/><path d="M97.6282 52.0261L99.3778 58.8006L101.351 52.0261H103.759L105.732 58.8006L107.482 52.0261H110.323L106.978 62.7617H104.613L102.527 55.5813L100.428 62.7617H98.062L94.7588 52.0261H97.6002H97.6282Z" fill="#111111" data-color-group="1"/><path d="M110.813 61.3622C110.813 60.4804 111.513 59.7805 112.395 59.7805C113.276 59.7805 114.004 60.4524 114.004 61.3622C114.004 62.272 113.29 62.9718 112.395 62.9718C111.499 62.9718 110.813 62.244 110.813 61.3622Z" fill="#111111" data-color-group="1"/><path d="M249.185 63.5455C249.185 62.6637 249.885 61.9639 250.767 61.9639C251.649 61.9639 252.376 62.6357 252.376 63.5455C252.376 64.4553 251.662 65.1551 250.767 65.1551C249.871 65.1551 249.185 64.4273 249.185 63.5455Z" fill="#111111" data-color-group="1"/><path d="M253.944 61.6561H256.281C256.281 62.6079 256.897 63.1538 258.269 63.1538C259.319 63.1538 259.85 62.7479 259.85 62.146C259.85 60.1725 254.238 61.0962 254.238 57.1771C254.238 55.3155 255.693 53.9858 258.143 53.9858C260.592 53.9858 261.95 55.1476 261.95 57.4291H259.627C259.627 56.5053 259.039 56.0154 257.989 56.0154C257.177 56.0154 256.715 56.4353 256.715 56.9532C256.715 58.8847 262.37 58.1429 262.37 61.866C262.37 63.6436 260.858 65.1553 258.241 65.1553C255.624 65.1553 253.972 63.8956 253.972 61.6701L253.944 61.6561Z" fill="#111111" data-color-group="1"/><path d="M264.778 60.676L264.806 56.351H263.056V54.2095H264.82V51.7321L267.381 51.4102V54.2095H269.887V56.351H267.381V60.774C267.381 62.1317 267.871 62.6776 268.963 62.6776C269.257 62.6776 269.551 62.6496 269.887 62.5656V64.9731C269.537 65.057 269.173 65.071 268.837 65.071C266.093 65.071 264.778 63.6014 264.792 60.69L264.778 60.676Z" fill="#111111" data-color-group="1"/><path d="M270.726 59.5706C270.726 56.4073 273.203 53.9858 276.311 53.9858C279.418 53.9858 281.895 56.4213 281.895 59.5706C281.895 62.7199 279.418 65.1553 276.311 65.1553C273.203 65.1553 270.726 62.7339 270.726 59.5706ZM279.25 59.5706C279.25 57.611 278.004 56.2813 276.311 56.2813C274.617 56.2813 273.371 57.611 273.371 59.5706C273.371 61.5301 274.617 62.8598 276.311 62.8598C278.004 62.8598 279.25 61.5301 279.25 59.5706Z" fill="#111111" data-color-group="1"/><path d="M283.449 54.1956H286.011V56.1272C286.598 54.7555 287.648 53.9717 288.894 53.9717C289.468 53.9717 289.846 54.0416 290.084 54.1256V56.7291C289.832 56.6311 289.51 56.5331 288.95 56.5331C287.158 56.5331 285.983 58.1707 285.983 60.3962V64.9312H283.449V54.1956Z" fill="#111111" data-color-group="1"/><path d="M291.049 59.6406C291.049 56.2673 293.555 53.9858 296.662 53.9858C299.769 53.9858 301.659 55.8054 301.659 59.0667C301.659 59.5146 301.659 59.8925 301.603 60.3404H293.737C293.961 62.048 294.968 62.9018 296.466 62.9018C297.712 62.9018 298.608 62.37 298.846 61.3202H301.519C301.029 63.9796 299.112 65.1553 296.34 65.1553C293.079 65.1553 291.049 63.0698 291.049 59.6406ZM293.863 58.2969H299.014C298.888 56.9952 298.034 56.2253 296.634 56.2253C295.234 56.2253 294.255 56.9812 293.863 58.2969Z" fill="#111111" data-color-group="1"/><path d="M130.884 67.8425H232.305" stroke="#111111" stroke-width="2.1975" stroke-miterlimit="10" stroke-linecap="round"/><defs><filter id="filter0_d_22_307" x="-0.000177383" y="6.67572e-05" width="365.75" height="114.522" filterUnits="userSpaceOnUse" color-interpolation-filters="sRGB"><feFlood flood-opacity="0" result="BackgroundImageFix"/><feColorMatrix in="SourceAlpha" type="matrix" values="0 0 0 0 0 0 0 0 0 0 0 0 0 0 0 0 0 0 127 0" result="hardAlpha"/><feOffset/><feGaussianBlur stdDeviation="11.3094"/><feColorMatrix type="matrix" values="0 0 0 0 0 0 0 0 0 0 0 0 0 0 0 0 0 0 0.2 0"/><feBlend mode="normal" in2="BackgroundImageFix" result="effect1_dropShadow_22_307"/><feBlend mode="normal" in="SourceGraphic" in2="effect1_dropShadow_22_307" result="shape"/></filter></defs></svg>