<svg width="100%" height="100%" viewBox="0 0 353 114" fill="none" xmlns="http://www.w3.org/2000/svg" preserveAspectRatio="none"><g filter="url(#filter0_d_32_385)"><path d="M296.83 22.1709H55.2733C36.9914 22.1709 22.1709 36.9914 22.1709 55.2733V58.3526C22.1709 76.6346 36.9914 91.4551 55.2733 91.4551H296.83C315.112 91.4551 329.933 76.6346 329.933 58.3526V55.2733C329.933 36.9914 315.112 22.1709 296.83 22.1709Z" fill="white" data-color-group="0"/></g><path d="M65.4668 52.2644L67.0811 58.5134L67.7178 60.9802L68.4307 58.5339L70.2568 52.2644H71.6152L73.4414 58.5339L74.1533 60.9802L74.791 58.5134L76.4043 52.2644H77.7529L74.8438 61.6003H73.5186L71.5801 54.9246L70.9102 52.6179L70.2363 54.9226L68.2842 61.6003H66.96L64.0869 52.2644H65.4668Z" fill="#111111" stroke="#111111" stroke-width="1.39968" data-color-group="1"/><path d="M81.1294 52.2644L82.7437 58.5134L83.3804 60.9802L84.0933 58.5339L85.9194 52.2644H87.2778L89.104 58.5339L89.8159 60.9802L90.4536 58.5134L92.0669 52.2644H93.4155L90.5063 61.6003H89.1812L87.2427 54.9246L86.5728 52.6179L85.8989 54.9226L83.9468 61.6003H82.6226L79.7495 52.2644H81.1294Z" fill="#111111" stroke="#111111" stroke-width="1.39968" data-color-group="1"/><path d="M96.7915 52.2644L98.4058 58.5134L99.0425 60.9802L99.7554 58.5339L101.582 52.2644H102.94L104.766 58.5339L105.478 60.9802L106.116 58.5134L107.729 52.2644H109.078L106.168 61.6003H104.843L102.905 54.9246L102.235 52.6179L101.561 54.9226L99.6089 61.6003H98.2847L95.4116 52.2644H96.7915Z" fill="#111111" stroke="#111111" stroke-width="1.39968" data-color-group="1"/><path d="M112.101 60.0327C112.621 60.0329 113.01 60.4153 113.01 60.9146C113.01 61.4335 112.614 61.8235 112.101 61.8237C111.612 61.8237 111.219 61.4298 111.219 60.9146C111.219 60.4193 111.606 60.0327 112.101 60.0327Z" fill="#111111" stroke="#111111" stroke-width="1.39968" data-color-group="1"/><path d="M250.459 62.2021C250.978 62.2023 251.368 62.5848 251.368 63.084C251.368 63.6029 250.972 63.993 250.459 63.9932C249.97 63.9932 249.577 63.5993 249.577 63.084C249.577 62.5887 249.964 62.2021 250.459 62.2021Z" fill="#111111" stroke="#111111" stroke-width="1.39968" data-color-group="1"/><path d="M256.239 54.4331V63.769H255.021V54.4331H256.239ZM255.666 49.7729C256.092 49.7732 256.435 50.118 256.436 50.5562C256.436 50.9856 256.073 51.3401 255.666 51.3403C255.242 51.3403 254.868 50.9688 254.868 50.5562C254.868 50.1352 255.223 49.7729 255.666 49.7729Z" fill="#111111" stroke="#111111" stroke-width="1.39968" data-color-group="1"/><path d="M264.819 54.21C265.838 54.21 266.647 54.5655 267.202 55.1426C267.759 55.722 268.108 56.5752 268.108 57.6523V63.7695H266.891V58.1426C266.891 57.2954 266.633 56.5274 266.097 55.9668C265.557 55.4026 264.802 55.1191 263.951 55.1191C263.101 55.1192 262.346 55.4029 261.806 55.9697C261.269 56.5327 261.013 57.304 261.013 58.1562V63.7559H259.795V54.4336H261.013V56.9082L262.251 55.4121C262.863 54.6726 263.788 54.21 264.819 54.21Z" fill="#111111" stroke="#111111" stroke-width="1.39968" data-color-group="1"/><path d="M275.989 49.7871C276.098 49.7871 276.212 49.7907 276.325 49.7969V50.7471C276.219 50.7416 276.116 50.7383 276.017 50.7383C275.382 50.7383 274.771 50.92 274.347 51.4434C273.949 51.9339 273.819 52.6015 273.819 53.3281V54.4473H276.325V55.1895H273.819V63.7832H272.602V55.1895H270.643V54.4473H272.602V53.4541C272.602 52.099 272.914 51.2102 273.425 50.6602C273.926 50.1202 274.73 49.7871 275.989 49.7871Z" fill="#111111" stroke="#111111" stroke-width="1.39968" data-color-group="1"/><path d="M282.932 54.2239C285.656 54.224 287.816 56.3494 287.816 59.1086C287.816 61.8678 285.656 63.9933 282.932 63.9934C280.206 63.9934 278.047 61.8807 278.047 59.1086C278.047 56.3365 280.206 54.2239 282.932 54.2239ZM282.932 55.1194C281.892 55.1194 280.967 55.5315 280.308 56.259C279.652 56.9826 279.292 57.9804 279.292 59.1086C279.292 60.2366 279.652 61.2338 280.308 61.9573C280.967 62.6848 281.892 63.0979 282.932 63.0979C283.971 63.0978 284.896 62.6855 285.555 61.9583C286.21 61.2347 286.57 60.2369 286.57 59.1086C286.57 57.9803 286.21 56.9826 285.555 56.259C284.896 55.5316 283.971 55.1195 282.932 55.1194Z" fill="#111111" stroke="#111111" stroke-width="1.39968" data-color-group="1"/><path d="M130.59 67.3806H231.997" stroke="#111111" stroke-width="2.1975" stroke-miterlimit="10" stroke-linecap="round"/><defs><filter id="filter0_d_32_385" x="-3.62396e-05" y="-3.62396e-05" width="352.104" height="113.626" filterUnits="userSpaceOnUse" color-interpolation-filters="sRGB"><feFlood flood-opacity="0" result="BackgroundImageFix"/><feColorMatrix in="SourceAlpha" type="matrix" values="0 0 0 0 0 0 0 0 0 0 0 0 0 0 0 0 0 0 127 0" result="hardAlpha"/><feOffset/><feGaussianBlur stdDeviation="11.0855"/><feColorMatrix type="matrix" values="0 0 0 0 0 0 0 0 0 0 0 0 0 0 0 0 0 0 0.2 0"/><feBlend mode="normal" in2="BackgroundImageFix" result="effect1_dropShadow_32_385"/><feBlend mode="normal" in="SourceGraphic" in2="effect1_dropShadow_32_385" result="shape"/></filter></defs></svg>