<svg xmlns="http://www.w3.org/2000/svg" width="143" height="23" viewBox="0 0 143 23"><g fill="#111"><path d="M45.432 19.098h1.73v-6.083c0-1.823 1.208-3.01 2.833-3.01 1.583 0 2.541.989 2.541 2.76v6.333h1.73v-6.625c0-2.438-1.47-4-3.834-4a3.9 3.9 0 0 0-3.27 1.708v-1.5h-1.73ZM59.36 19.306c1.718 0 2.885-.604 3.76-1.969l.094 1.76h1.447V12.65c0-2.604-1.604-4.177-4.114-4.177-2.188 0-3.719 1.146-4.125 3.094l1.625.02c.302-1 1.125-1.604 2.417-1.604 1.604 0 2.562 1 2.562 2.76v.75a8.9 8.9 0 0 0-3.01-.54c-2.625 0-4.167 1.28-4.157 3.27-.01 1.875 1.26 3.083 3.5 3.083m-1.771-3.177c-.01-1.042.875-1.792 2.5-1.792 1.072 0 1.937.178 2.916.594-.135 1.531-1.291 2.906-3.344 2.906-1.416 0-2.083-.687-2.072-1.708M66.797 19.098h1.729v-6.136c0-1.802 1.167-2.958 2.73-2.958 1.53 0 2.447.958 2.447 2.708v6.386h1.73v-6.136c0-1.812 1.156-2.958 2.728-2.958 1.521 0 2.448.958 2.448 2.708v6.386h1.73v-6.625c0-2.438-1.438-4-3.75-4-1.553 0-2.792.73-3.573 1.98-.573-1.25-1.74-1.98-3.334-1.98-1.343 0-2.5.646-3.208 1.708v-1.5h-1.677ZM89.036 19.306c2.553 0 4.365-1.146 4.907-3.614h-1.75c-.396 1.458-1.521 2.104-3.094 2.104-1.98 0-3.281-1.281-3.406-3.49h8.343c.032-.375.042-.719.042-1.094 0-3.041-1.948-4.74-4.792-4.74-3.083 0-5.354 2.293-5.354 5.522 0 3.24 1.98 5.312 5.104 5.312m.209-9.344c1.823 0 3.062 1.053 3.104 2.97h-6.573c.354-1.792 1.656-2.97 3.469-2.97M96.214 19.275c.625 0 1.135-.52 1.135-1.135a1.13 1.13 0 0 0-1.135-1.125c-.625 0-1.125.5-1.125 1.125 0 .614.49 1.135 1.125 1.135"/></g></svg>