<svg width="100%" height="100%" viewBox="0 0 384 116" fill="none" xmlns="http://www.w3.org/2000/svg" preserveAspectRatio="none"><g filter="url(#filter0_d_22_124)"><path d="M325.705 23.2068H57.8486C38.7163 23.2068 23.2065 38.7166 23.2065 57.8489C23.2065 76.9812 38.7163 92.491 57.8486 92.491H325.705C344.838 92.491 360.347 76.9812 360.347 57.8489C360.347 38.7166 344.838 23.2068 325.705 23.2068Z" fill="white" data-color-group="0"/></g><path d="M70.4634 53.3005L72.0776 59.5496L72.7144 62.0164L73.4272 59.5701L75.2534 53.3005H76.6118L78.438 59.5701L79.1499 62.0164L79.7876 59.5496L81.4009 53.3005H82.7495L79.8403 62.6365H78.5151L76.5767 55.9607L75.9067 53.6541L75.2329 55.9587L73.2808 62.6365H71.9575L69.0845 53.3005H70.4634Z" fill="white" stroke="#111111" stroke-width="1.39968" data-color-group="0"/><path d="M86.126 53.3005L87.7402 59.5496L88.377 62.0164L89.0898 59.5701L90.916 53.3005H92.2744L94.1006 59.5701L94.8125 62.0164L95.4502 59.5496L97.0635 53.3005H98.4121L95.5029 62.6365H94.1777L92.2393 55.9607L91.5693 53.6541L90.8955 55.9587L88.9434 62.6365H87.6201L84.7471 53.3005H86.126Z" fill="white" stroke="#111111" stroke-width="1.39968" data-color-group="0"/><path d="M101.774 53.3005L103.388 59.5496L104.025 62.0164L104.738 59.5701L106.564 53.3005H107.922L109.749 59.5701L110.46 62.0164L111.098 59.5496L112.711 53.3005H114.06L111.151 62.6365H109.826L107.887 55.9607L107.217 53.6541L106.543 55.9587L104.591 62.6365H103.268L100.395 53.3005H101.774Z" fill="white" stroke="#111111" stroke-width="1.39968" data-color-group="0"/><path d="M117.083 61.0686C117.603 61.0688 117.993 61.4512 117.993 61.9504C117.992 62.4694 117.596 62.8594 117.083 62.8596C116.594 62.8596 116.202 62.4657 116.202 61.9504C116.202 61.4552 116.588 61.0686 117.083 61.0686Z" fill="white" stroke="#111111" stroke-width="1.39968" data-color-group="0"/><path d="M255.456 63.238C255.975 63.2382 256.365 63.6207 256.365 64.1199C256.365 64.6388 255.969 65.0289 255.456 65.0291C254.966 65.0291 254.574 64.6352 254.574 64.1199C254.574 63.6246 254.96 63.238 255.456 63.238Z" fill="white" stroke="#111111" stroke-width="1.39968" data-color-group="0"/><path d="M264.315 55.2595C267.04 55.2597 269.2 57.385 269.2 60.1443C269.2 62.9034 267.039 65.0289 264.315 65.0291C261.59 65.0291 259.431 62.9163 259.431 60.1443C259.431 57.3721 261.59 55.2595 264.315 55.2595ZM264.315 56.155C263.276 56.155 262.351 56.5672 261.691 57.2947C261.036 58.0182 260.676 59.016 260.676 60.1443C260.676 61.2723 261.036 62.2694 261.691 62.9929C262.351 63.7204 263.276 64.1335 264.315 64.1335C265.355 64.1335 266.279 63.7204 266.938 62.9929C267.594 62.2694 267.954 61.2724 267.954 60.1443C267.954 59.016 267.594 58.0182 266.938 57.2947C266.279 56.5673 265.355 56.1551 264.315 56.155Z" fill="white" stroke="#111111" stroke-width="1.39968" data-color-group="0"/><path d="M277.178 55.2458C278.197 55.2458 279.006 55.6014 279.561 56.1785C280.118 56.7578 280.467 57.6111 280.467 58.6882V64.8054H279.25V59.1785C279.249 58.3313 278.992 57.5633 278.456 57.0027C277.916 56.4386 277.162 56.1551 276.311 56.155C275.46 56.155 274.705 56.4387 274.165 57.0056C273.628 57.5685 273.372 58.3398 273.372 59.1921V64.7917H272.154V55.4695H273.372V57.9441L274.61 56.448C275.222 55.7085 276.147 55.2459 277.178 55.2458Z" fill="white" stroke="#111111" stroke-width="1.39968" data-color-group="0"/><path d="M285.171 51.0188V64.8049H283.953V51.0188H285.171Z" fill="white" stroke="#111111" stroke-width="1.39968" data-color-group="0"/><path d="M289.944 55.469V64.8049H288.726V55.469H289.944ZM289.356 50.8088C289.782 50.809 290.125 51.1539 290.125 51.592C290.125 52.0215 289.763 52.376 289.356 52.3762C288.932 52.3762 288.558 52.0047 288.558 51.592C288.558 51.1711 288.912 50.8088 289.356 50.8088Z" fill="white" stroke="#111111" stroke-width="1.39968" data-color-group="0"/><path d="M298.509 55.2458C299.528 55.2458 300.337 55.6014 300.892 56.1785C301.449 56.7578 301.798 57.6111 301.798 58.6882V64.8054H300.581V59.1785C300.581 58.3313 300.323 57.5633 299.787 57.0027C299.247 56.4386 298.493 56.1551 297.642 56.155C296.791 56.155 296.036 56.4387 295.496 57.0056C294.959 57.5685 294.703 58.3398 294.703 59.1921V64.7917H293.485V55.4695H294.703V57.9441L295.941 56.448C296.553 55.7085 297.478 55.2459 298.509 55.2458Z" fill="white" stroke="#111111" stroke-width="1.39968" data-color-group="0"/><path d="M309.776 55.2595C311.194 55.2595 312.247 55.6716 312.945 56.3708C313.643 57.07 314.074 58.1441 314.074 59.6404C314.074 59.8504 314.073 60.0355 314.067 60.2136H306.054L306.157 61.0046C306.285 61.9762 306.647 62.7855 307.267 63.3513C307.889 63.92 308.697 64.1755 309.581 64.1755C310.297 64.1755 310.976 64.0224 311.528 63.6658C311.938 63.4013 312.253 63.0382 312.457 62.5935H313.723C313.452 63.3272 313.03 63.8602 312.496 64.2371C311.764 64.7538 310.749 65.029 309.455 65.0291C307.977 65.0291 306.85 64.5602 306.091 63.7722C305.329 62.981 304.864 61.7909 304.864 60.2136C304.864 57.2422 307.041 55.2597 309.776 55.2595ZM309.749 56.0994C308.92 56.0994 308.171 56.3243 307.563 56.782C306.957 57.239 306.538 57.893 306.307 58.6707L306.039 59.5701H312.899L312.825 58.8025C312.749 58.0111 312.441 57.3156 311.878 56.821C311.318 56.3287 310.577 56.0994 309.749 56.0994Z" fill="white" stroke="#111111" stroke-width="1.39968" data-color-group="0"/><path d="M135.573 68.4163H236.994" stroke="#111111" stroke-width="2.1975" stroke-miterlimit="10" stroke-linecap="round"/><defs><filter id="filter0_d_22_124" x="-0.000150681" y="9.34601e-05" width="383.555" height="115.698" filterUnits="userSpaceOnUse" color-interpolation-filters="sRGB"><feFlood flood-opacity="0" result="BackgroundImageFix"/><feColorMatrix in="SourceAlpha" type="matrix" values="0 0 0 0 0 0 0 0 0 0 0 0 0 0 0 0 0 0 127 0" result="hardAlpha"/><feOffset/><feGaussianBlur stdDeviation="11.6033"/><feColorMatrix type="matrix" values="0 0 0 0 0 0 0 0 0 0 0 0 0 0 0 0 0 0 0.2 0"/><feBlend mode="normal" in2="BackgroundImageFix" result="effect1_dropShadow_22_124"/><feBlend mode="normal" in="SourceGraphic" in2="effect1_dropShadow_22_124" result="shape"/></filter></defs></svg>