<svg width="100%" height="100%" viewBox="0 0 347 114" fill="none" xmlns="http://www.w3.org/2000/svg" preserveAspectRatio="none"><g filter="url(#filter0_d_32_503)"><path d="M290.252 22.0029H56.645C37.5127 22.0029 22.0029 37.5127 22.0029 56.645C22.0029 75.7773 37.5127 91.2871 56.645 91.2871H290.252C309.384 91.2871 324.894 75.7773 324.894 56.645C324.894 37.5127 309.384 22.0029 290.252 22.0029Z" fill="white" data-color-group="0"/></g><path d="M67.8703 51.396L69.6199 58.1704L71.5934 51.396H74.0009L75.9744 58.1704L77.724 51.396H80.5654L77.2202 62.1315H74.8547L72.7692 54.9512L70.6697 62.1315H68.3042L65.001 51.396H67.8423H67.8703Z" fill="#111111" data-color-group="1"/><path d="M83.5187 51.396L85.2683 58.1704L87.2419 51.396H89.6493L91.6229 58.1704L93.3725 51.396H96.2138L92.8686 62.1315H90.5031L88.4176 54.9512L86.3181 62.1315H83.9526L80.6494 51.396H83.4907H83.5187Z" fill="#111111" data-color-group="1"/><path d="M99.1813 51.396L100.931 58.1704L102.904 51.396H105.312L107.285 58.1704L109.035 51.396H111.876L108.531 62.1315H106.166L104.08 54.9512L101.981 62.1315H99.6152L96.312 51.396H99.1533H99.1813Z" fill="#111111" data-color-group="1"/><path d="M112.366 60.7459C112.366 59.8641 113.066 59.1643 113.948 59.1643C114.83 59.1643 115.558 59.8362 115.558 60.7459C115.558 61.6557 114.844 62.3556 113.948 62.3556C113.052 62.3556 112.366 61.6277 112.366 60.7459Z" fill="#111111" data-color-group="1"/><path d="M250.738 62.9156C250.738 62.0338 251.438 61.334 252.32 61.334C253.202 61.334 253.93 62.0058 253.93 62.9156C253.93 63.8254 253.216 64.5253 252.32 64.5253C251.424 64.5253 250.738 63.7974 250.738 62.9156Z" fill="#111111" data-color-group="1"/><path d="M255.693 61.2218C255.693 59.1223 257.191 57.8206 259.962 57.8206C260.9 57.8206 261.852 57.9886 262.762 58.2545V57.8486C262.762 56.5049 261.992 55.6511 260.606 55.6511C259.486 55.6511 258.968 56.169 258.786 56.9248L256.351 56.8968C256.519 54.7833 258.087 53.3696 260.718 53.3696C263.349 53.3696 265.253 55.1052 265.253 57.7786V64.3291H263.097L262.93 62.9014C261.992 64.0352 260.872 64.5391 259.346 64.5391C257.023 64.5391 255.679 63.3074 255.679 61.2358L255.693 61.2218ZM259.878 62.3416C261.376 62.3416 262.538 61.4318 262.734 60.326C261.88 59.9761 261.096 59.8641 260.172 59.8641C258.898 59.8641 258.269 60.354 258.283 61.0959C258.283 61.8657 258.772 62.3416 259.878 62.3416Z" fill="#111111" data-color-group="1"/><path d="M267.254 50.3884C267.254 49.5766 267.926 48.9048 268.752 48.9048C269.578 48.9048 270.222 49.5766 270.222 50.3884C270.222 51.2003 269.55 51.8721 268.752 51.8721C267.954 51.8721 267.254 51.2003 267.254 50.3884ZM267.408 53.5797H270.026V64.3153H267.408V53.5797Z" fill="#111111" data-color-group="1"/><path d="M132.438 67.2266H233.858" stroke="black" stroke-width="2.1975" stroke-miterlimit="10" stroke-linecap="round"/><defs><filter id="filter0_d_32_503" x="-4.00543e-05" y="-4.00543e-05" width="346.897" height="113.29" filterUnits="userSpaceOnUse" color-interpolation-filters="sRGB"><feFlood flood-opacity="0" result="BackgroundImageFix"/><feColorMatrix in="SourceAlpha" type="matrix" values="0 0 0 0 0 0 0 0 0 0 0 0 0 0 0 0 0 0 127 0" result="hardAlpha"/><feOffset/><feGaussianBlur stdDeviation="11.0015"/><feColorMatrix type="matrix" values="0 0 0 0 0 0 0 0 0 0 0 0 0 0 0 0 0 0 0.2 0"/><feBlend mode="normal" in2="BackgroundImageFix" result="effect1_dropShadow_32_503"/><feBlend mode="normal" in="SourceGraphic" in2="effect1_dropShadow_32_503" result="shape"/></filter></defs></svg>