<svg xmlns="http://www.w3.org/2000/svg" width="143" height="23" viewBox="0 0 143 23"><g fill="#111"><path d="M28.693 19.306c2.26 0 4.052-.875 5.02-2.594l.146 2.386h1.438v-7.552h-5.27v1.51h3.572v.188c0 2.218-1.49 4.448-4.77 4.448-3.553 0-5.21-2.313-5.21-5.99 0-3.76 2-5.937 5.23-5.937 2.594 0 4.104 1.125 4.52 3.28h1.865c-.5-3.093-2.677-4.885-6.395-4.885-4.344 0-7.105 3.021-7.105 7.605 0 4.76 2.657 7.541 6.959 7.541M37.495 19.098h1.687v-5.02c0-2.334 1.26-3.886 2.99-3.886.406 0 .708.062 1.01.166v-1.74a4 4 0 0 0-1.01-.114c-1.302 0-2.406.823-2.98 2.271V8.681h-1.697ZM49.005 19.306c2.552 0 4.365-1.146 4.906-3.614h-1.75c-.395 1.458-1.52 2.104-3.093 2.104-1.98 0-3.282-1.281-3.407-3.49h8.344c.031-.375.042-.719.042-1.094 0-3.041-1.948-4.74-4.792-4.74-3.083 0-5.354 2.293-5.354 5.522 0 3.24 1.98 5.312 5.104 5.312m.209-9.344c1.822 0 3.062 1.053 3.104 2.97h-6.573c.354-1.792 1.656-2.97 3.469-2.97M58.568 19.306c1.718 0 2.885-.604 3.76-1.969l.094 1.76h1.448V12.65c0-2.604-1.604-4.177-4.115-4.177-2.187 0-3.719 1.146-4.125 3.094l1.625.02c.302-1 1.125-1.604 2.417-1.604 1.604 0 2.562 1 2.562 2.76v.75a8.9 8.9 0 0 0-3.01-.54c-2.625 0-4.167 1.28-4.156 3.27-.01 1.875 1.26 3.083 3.5 3.083m-1.771-3.177c-.01-1.042.875-1.792 2.5-1.792 1.073 0 1.937.178 2.917.594-.136 1.531-1.292 2.906-3.344 2.906-1.417 0-2.084-.687-2.073-1.708M70.068 19.265c.385 0 .802-.042 1.135-.146v-1.584a3.6 3.6 0 0 1-1.042.146c-1.125 0-1.708-.635-1.708-2.27v-5.25h2.708V8.68h-2.708V5.973l-1.698.219v2.49h-1.729v1.478h1.719l-.01 5.25c0 2.605 1.135 3.855 3.333 3.855"/><path/><path d="M78.099 6.431c.583 0 1.073-.49 1.073-1.083 0-.594-.49-1.083-1.073-1.083a1.09 1.09 0 0 0-1.083 1.083c0 .594.49 1.083 1.083 1.083m-.875 12.667h1.73V8.68h-1.73ZM90.734 19.098V4.368h-1.718v5.844c-.844-1.166-2.042-1.74-3.459-1.74-2.812 0-4.875 2.063-4.875 5.428 0 3.344 2.063 5.406 4.865 5.406 1.417 0 2.625-.573 3.469-1.74v1.532Zm-5.01-1.313c-1.948 0-3.281-1.49-3.281-3.906 0-2.396 1.333-3.885 3.302-3.885 2.031 0 3.416 1.49 3.416 3.896s-1.385 3.895-3.437 3.895M97.516 19.306c2.552 0 4.364-1.146 4.906-3.614h-1.75c-.396 1.458-1.521 2.104-3.094 2.104-1.98 0-3.281-1.281-3.406-3.49h8.344c.03-.375.041-.719.041-1.094 0-3.041-1.948-4.74-4.791-4.74-3.084 0-5.355 2.293-5.355 5.522 0 3.24 1.98 5.312 5.105 5.312m.208-9.344c1.823 0 3.062 1.053 3.104 2.97h-6.573c.354-1.792 1.656-2.97 3.469-2.97M107.078 19.306c1.719 0 2.885-.604 3.76-1.969l.094 1.76h1.448V12.65c0-2.604-1.604-4.177-4.114-4.177-2.188 0-3.72 1.146-4.125 3.094l1.625.02c.302-1 1.125-1.604 2.416-1.604 1.604 0 2.563 1 2.563 2.76v.75a8.9 8.9 0 0 0-3.01-.54c-2.626 0-4.167 1.28-4.157 3.27-.01 1.875 1.26 3.083 3.5 3.083m-1.77-3.177c-.011-1.042.874-1.792 2.5-1.792 1.072 0 1.937.178 2.916.594-.136 1.531-1.292 2.906-3.344 2.906-1.417 0-2.083-.687-2.073-1.708M117.651 19.306c2.49 0 3.906-1.312 3.906-3.031 0-3.906-5.875-2.49-5.875-5.02 0-.74.625-1.397 1.802-1.397 1.334 0 2.063.636 2.115 1.782h1.573c-.021-2.01-1.25-3.167-3.604-3.167-2.23 0-3.532 1.292-3.532 2.885 0 3.98 5.844 2.427 5.844 5.063 0 .906-.729 1.52-2.187 1.51-1.605 0-2.334-.687-2.386-1.906h-1.594c.084 2.073 1.51 3.281 3.938 3.281"/></g></svg>