<svg width="100%" height="100%" viewBox="0 0 384 116" fill="none" xmlns="http://www.w3.org/2000/svg" preserveAspectRatio="none"><g filter="url(#filter0_d_22_107)"><path d="M325.705 23.2068H57.8486C38.7163 23.2068 23.2065 38.7166 23.2065 57.8489C23.2065 76.9812 38.7163 92.491 57.8486 92.491H325.705C344.838 92.491 360.347 76.9812 360.347 57.8489C360.347 38.7166 344.838 23.2068 325.705 23.2068Z" fill="white" data-color-group="0"/></g><path d="M68.4583 52.6003L70.2079 59.3748L72.1815 52.6003H74.5889L76.5625 59.3748L78.3121 52.6003H81.1533L77.8082 63.3359H75.4427L73.3572 56.1555L71.2576 63.3359H68.8921L65.5889 52.6003H68.4303H68.4583Z" fill="#111111" data-color-group="1"/><path d="M84.1067 52.6003L85.8563 59.3748L87.8297 52.6003H90.2372L92.2107 59.3748L93.9603 52.6003H96.8017L93.4565 63.3359H91.0911L89.0056 56.1555L86.9061 63.3359H84.5405L81.2373 52.6003H84.0787H84.1067Z" fill="#111111" data-color-group="1"/><path d="M99.7688 52.6003L101.518 59.3748L103.492 52.6003H105.899L107.873 59.3748L109.623 52.6003H112.464L109.119 63.3359H106.753L104.668 56.1555L102.568 63.3359H100.203L96.8994 52.6003H99.7408H99.7688Z" fill="#111111" data-color-group="1"/><path d="M112.954 61.9501C112.954 61.0683 113.654 60.3684 114.536 60.3684C115.418 60.3684 116.145 61.0403 116.145 61.9501C116.145 62.8598 115.432 63.5597 114.536 63.5597C113.64 63.5597 112.954 62.8319 112.954 61.9501Z" fill="#111111" data-color-group="1"/><path d="M251.326 64.1195C251.326 63.2377 252.026 62.5378 252.908 62.5378C253.79 62.5378 254.517 63.2097 254.517 64.1195C254.517 65.0293 253.804 65.7291 252.908 65.7291C252.012 65.7291 251.326 65.0013 251.326 64.1195Z" fill="#111111" data-color-group="1"/><path d="M264.119 65.5191V64.7213C263.223 65.4352 262.215 65.7291 261.166 65.7291C258.24 65.7291 256.015 63.6296 256.015 60.1444C256.015 56.6592 258.254 54.5597 261.166 54.5597C262.215 54.5597 263.223 54.8536 264.119 55.5674V50.3186H266.736V65.5051H264.119V65.5191ZM264.357 60.1444C264.357 58.1848 263.181 56.8551 261.501 56.8551C259.822 56.8551 258.66 58.0868 258.66 60.1444C258.66 62.2019 259.836 63.4336 261.501 63.4336C263.167 63.4336 264.357 62.1039 264.357 60.1444Z" fill="#111111" data-color-group="1"/><path d="M268.458 60.214C268.458 56.8408 270.964 54.5593 274.071 54.5593C277.179 54.5593 279.068 56.3789 279.068 59.6402C279.068 60.088 279.068 60.466 279.012 60.9139H271.146C271.37 62.6215 272.378 63.4753 273.875 63.4753C275.121 63.4753 276.017 62.9434 276.255 61.8936H278.928C278.438 64.553 276.521 65.7288 273.749 65.7288C270.488 65.7288 268.458 63.6432 268.458 60.214ZM271.272 58.8703H276.423C276.297 57.5686 275.443 56.7988 274.043 56.7988C272.644 56.7988 271.664 57.5546 271.272 58.8703Z" fill="#111111" data-color-group="1"/><path d="M280.146 62.2437H282.483C282.483 63.1955 283.099 63.7414 284.47 63.7414C285.52 63.7414 286.052 63.3355 286.052 62.7336C286.052 60.7601 280.439 61.6839 280.439 57.7648C280.439 55.9032 281.895 54.5735 284.345 54.5735C286.794 54.5735 288.152 55.7352 288.152 58.0167H285.828C285.828 57.0929 285.24 56.603 284.191 56.603C283.379 56.603 282.917 57.0229 282.917 57.5408C282.917 59.4724 288.572 58.7305 288.572 62.4537C288.572 64.2313 287.06 65.7429 284.442 65.7429C281.825 65.7429 280.174 64.4832 280.174 62.2577L280.146 62.2437Z" fill="#111111" data-color-group="1"/><path d="M289.887 51.5923C289.887 50.7805 290.559 50.1086 291.385 50.1086C292.211 50.1086 292.855 50.7805 292.855 51.5923C292.855 52.4041 292.183 53.076 291.385 53.076C290.587 53.076 289.887 52.4041 289.887 51.5923ZM290.041 54.7696H292.659V65.5051H290.041V54.7696Z" fill="#111111" data-color-group="1"/><path d="M294.954 66.3026H297.474C297.67 67.4364 298.369 68.0802 299.867 68.0802C301.533 68.0802 302.499 67.0864 302.499 65.5468V64.721C301.603 65.4348 300.595 65.7288 299.545 65.7288C296.62 65.7288 294.395 63.6292 294.395 60.144C294.395 56.6588 296.634 54.5593 299.545 54.5593C300.595 54.5593 301.603 54.8532 302.499 55.5671V54.7693H305.116V65.0709C305.116 68.1642 302.961 70.1797 299.979 70.1797C296.998 70.1797 295.192 68.6401 294.954 66.3166V66.3026ZM302.737 60.144C302.737 58.1845 301.561 56.8548 299.881 56.8548C298.202 56.8548 297.04 58.0865 297.04 60.144C297.04 62.2016 298.216 63.4333 299.881 63.4333C301.547 63.4333 302.737 62.1036 302.737 60.144Z" fill="#111111" data-color-group="1"/><path d="M307.257 54.7696H309.875V56.0013C310.617 55.1055 311.736 54.5457 312.982 54.5457C315.361 54.5457 316.971 56.2253 316.971 58.6887V65.5052H314.354V59.1786C314.354 57.7649 313.5 56.8551 312.114 56.8551C310.728 56.8551 309.875 57.7649 309.875 59.1926V65.4912H307.257V54.7556V54.7696Z" fill="#111111" data-color-group="1"/><path d="M133.025 68.4163H234.446" stroke="black" stroke-width="2.1975" stroke-miterlimit="10" stroke-linecap="round"/><defs><filter id="filter0_d_22_107" x="-0.000150681" y="9.34601e-05" width="383.555" height="115.698" filterUnits="userSpaceOnUse" color-interpolation-filters="sRGB"><feFlood flood-opacity="0" result="BackgroundImageFix"/><feColorMatrix in="SourceAlpha" type="matrix" values="0 0 0 0 0 0 0 0 0 0 0 0 0 0 0 0 0 0 127 0" result="hardAlpha"/><feOffset/><feGaussianBlur stdDeviation="11.6033"/><feColorMatrix type="matrix" values="0 0 0 0 0 0 0 0 0 0 0 0 0 0 0 0 0 0 0.2 0"/><feBlend mode="normal" in2="BackgroundImageFix" result="effect1_dropShadow_22_107"/><feBlend mode="normal" in="SourceGraphic" in2="effect1_dropShadow_22_107" result="shape"/></filter></defs></svg>