<svg xmlns="http://www.w3.org/2000/svg" width="143" height="23" viewBox="0 0 143 23"><g fill="#111"><path d="M39.078 19.098V4.368H37.36v5.844c-.843-1.166-2.041-1.74-3.458-1.74-2.812 0-4.875 2.063-4.875 5.428 0 3.344 2.063 5.406 4.865 5.406 1.416 0 2.625-.573 3.468-1.74v1.532Zm-5.01-1.313c-1.948 0-3.281-1.49-3.281-3.906 0-2.396 1.333-3.885 3.302-3.885 2.03 0 3.416 1.49 3.416 3.896s-1.385 3.895-3.437 3.895M45.86 19.306c2.551 0 4.364-1.146 4.906-3.614h-1.75c-.396 1.458-1.521 2.104-3.094 2.104-1.98 0-3.281-1.281-3.406-3.49h8.343c.032-.375.042-.719.042-1.094 0-3.041-1.948-4.74-4.792-4.74-3.083 0-5.354 2.293-5.354 5.522 0 3.24 1.98 5.312 5.104 5.312m.208-9.344c1.823 0 3.062 1.053 3.104 2.97h-6.573c.354-1.792 1.656-2.97 3.469-2.97M55.682 19.306c2.49 0 3.907-1.312 3.907-3.031 0-3.906-5.875-2.49-5.875-5.02 0-.74.625-1.397 1.802-1.397 1.333 0 2.062.636 2.114 1.782h1.573c-.02-2.01-1.25-3.167-3.604-3.167-2.23 0-3.531 1.292-3.531 2.885 0 3.98 5.843 2.427 5.843 5.063 0 .906-.729 1.52-2.187 1.51-1.604 0-2.333-.687-2.385-1.906h-1.594c.083 2.073 1.51 3.281 3.937 3.281M65.589 19.306c2.552 0 4.364-1.146 4.906-3.614h-1.75c-.396 1.458-1.521 2.104-3.094 2.104-1.98 0-3.281-1.281-3.406-3.49h8.344c.03-.375.041-.719.041-1.094 0-3.041-1.948-4.74-4.791-4.74-3.084 0-5.355 2.293-5.355 5.522 0 3.24 1.98 5.312 5.105 5.312m.208-9.344c1.823 0 3.062 1.053 3.104 2.97h-6.573c.354-1.792 1.656-2.97 3.469-2.97M72.276 19.098h1.688v-5.02c0-2.334 1.26-3.886 2.99-3.886.405 0 .707.062 1.01.166v-1.74a4 4 0 0 0-1.01-.114c-1.303 0-2.407.823-2.98 2.271V8.681h-1.698ZM78.734 8.681l4.24 10.417h1.448l4.25-10.417h-1.844l-3.083 8.188L80.65 8.68ZM94.068 19.306c2.552 0 4.364-1.146 4.906-3.614h-1.75c-.396 1.458-1.52 2.104-3.094 2.104-1.979 0-3.281-1.281-3.406-3.49h8.344c.03-.375.041-.719.041-1.094 0-3.041-1.948-4.74-4.791-4.74-3.084 0-5.354 2.293-5.354 5.522 0 3.24 1.979 5.312 5.104 5.312m.208-9.344c1.823 0 3.063 1.053 3.104 2.97h-6.573c.354-1.792 1.657-2.97 3.469-2.97"/><path/><path d="M108.255 19.306c1.719 0 2.886-.604 3.76-1.969l.094 1.76h1.448V12.65c0-2.604-1.604-4.177-4.114-4.177-2.188 0-3.72 1.146-4.125 3.094l1.625.02c.302-1 1.125-1.604 2.416-1.604 1.604 0 2.563 1 2.563 2.76v.75a8.9 8.9 0 0 0-3.01-.54c-2.626 0-4.167 1.28-4.157 3.27-.01 1.875 1.26 3.083 3.5 3.083m-1.77-3.177c-.011-1.042.874-1.792 2.5-1.792 1.072 0 1.937.178 2.916.594-.135 1.531-1.292 2.906-3.344 2.906-1.416 0-2.083-.687-2.073-1.708"/></g></svg>